<?xml version="1.0" encoding="UTF-8"?>
<svg version="1.1" xmlns="http://www.w3.org/2000/svg" width="225" height="225">
<path d="M0 0 C74.25 0 148.5 0 225 0 C225 74.25 225 148.5 225 225 C150.75 225 76.5 225 0 225 C0 150.75 0 76.5 0 0 Z " fill="#FEFEFE" transform="translate(0,0)"/>
<path d="M0 0 C0.33 0 0.66 0 1 0 C1.02578125 1.14855469 1.0515625 2.29710938 1.078125 3.48046875 C1.57766399 18.94278776 4.57265508 33.87518032 15 46 C16.9959722 46.67863055 18.99568551 47.34641919 21 48 C21.33 48.99 21.66 49.98 22 51 C24.01508358 51.73323796 24.01508358 51.73323796 26 52 C26.495 53.98 26.495 53.98 27 56 C27.66 56 28.32 56 29 56 C28.95875 54.741875 28.9175 53.48375 28.875 52.1875 C28.7609626 48.70935927 28.94074319 48.08888522 31 45 C31.495 46.98 31.495 46.98 32 49 C32.03867188 47.74896484 32.03867188 47.74896484 32.078125 46.47265625 C32.44923472 39.10950208 33.47795662 33.47258539 37 27 C38.3057148 24.53364981 39.04813688 22.76894299 39.625 20 C41.39022808 16.14859328 43.28982874 15.3826208 47.02734375 13.6640625 C49 13 49 13 52 13 C51.73445313 13.49628906 51.46890625 13.99257813 51.1953125 14.50390625 C46.12727144 24.25156186 44.15137765 34.02518418 47.15625 44.8515625 C48.25144894 47.6402635 49.69163953 50.18241877 51.125 52.8125 C54.22034565 58.71018527 54.69743785 63.43891798 54 70 C55.02480469 69.94199219 56.04960937 69.88398437 57.10546875 69.82421875 C58.46610011 69.77730043 59.82678096 69.73180248 61.1875 69.6875 C61.86103516 69.64560547 62.53457031 69.60371094 63.22851562 69.56054688 C67.18507062 69.46404553 68.76901521 69.80708962 71.84375 72.375 C72.5553125 73.24125 73.266875 74.1075 74 75 C74.763125 75.763125 75.52625 76.52625 76.3125 77.3125 C76.869375 77.869375 77.42625 78.42625 78 79 C77.48050781 79.29132813 76.96101563 79.58265625 76.42578125 79.8828125 C67.8101026 84.94711159 64.99521553 89.51892512 62.0859375 98.8984375 C58.99491201 107.72676211 54.01618795 114.64087172 45.82421875 119.21484375 C38.78252361 122.45333202 31.66453147 122.77912013 24 123 C24 123.66 24 124.32 24 125 C23.34 125 22.68 125 22 125 C22 125.66 22 126.32 22 127 C20.41800369 127.64910154 18.83434276 128.29414694 17.25 128.9375 C15.92742187 129.47697266 15.92742187 129.47697266 14.578125 130.02734375 C12.3786061 130.85716224 10.3133633 131.58838806 8 132 C7.67 131.67 7.34 131.34 7 131 C5.9275 131.020625 4.855 131.04125 3.75 131.0625 C0.19791392 131.00329857 -1.85105168 130.52676282 -5 129 C-2.35122304 127.58101234 0.08014819 126.68088981 3 126 C2.34773438 125.90203125 1.69546875 125.8040625 1.0234375 125.703125 C-4.61999455 124.73758205 -8.55094954 123.65050294 -13 120 C-13.33 119.34 -13.66 118.68 -14 118 C-11.03 118.33 -8.06 118.66 -5 119 C-6.2375 118.319375 -7.475 117.63875 -8.75 116.9375 C-13.11764969 114.24256721 -14.83623978 111.59799047 -17 107 C-13.24670206 108.01651819 -9.70523296 109.10807398 -6.125 110.625 C-1.79690484 112.302031 2.40146353 112.52324704 7 112 C7.33 111.67 7.66 111.34 8 111 C9.0725 110.87625 10.145 110.7525 11.25 110.625 C14.97104654 110.00482558 17.02972682 109.27138538 20 107 C20.495 105.515 20.495 105.515 21 104 C20.01 104 19.02 104 18 104 C18 103.01 18 102.02 18 101 C18.598125 100.95875 19.19625 100.9175 19.8125 100.875 C22.35100832 100.12260099 22.35100832 100.12260099 23.75 96.9375 C24.36875 95.4834375 24.36875 95.4834375 25 94 C24.01 94.33 23.02 94.66 22 95 C13.29673539 95.65305882 7.63928828 94.91421628 0.6875 89.5 C-2 87 -2 87 -3 84 C-0.36 83.67 2.28 83.34 5 83 C3.80375 82.505 2.6075 82.01 1.375 81.5 C-3.48910826 79.06362606 -6.39358051 75.74059573 -9 71 C-9.875 67.5 -9.875 67.5 -10 65 C-8.02 65.99 -6.04 66.98 -4 68 C-4.42152344 67.18015625 -4.84304687 66.3603125 -5.27734375 65.515625 C-5.82519531 64.43796875 -6.37304688 63.3603125 -6.9375 62.25 C-7.48277344 61.18265625 -8.02804688 60.1153125 -8.58984375 59.015625 C-10.60927741 54.69705774 -11.12502719 51.50206631 -11.0625 46.75 C-11.05347656 45.85796875 -11.04445313 44.9659375 -11.03515625 44.046875 C-11.02355469 43.37140625 -11.01195313 42.6959375 -11 42 C-10.01 41.505 -10.01 41.505 -9 41 C-8.34 41.99 -7.68 42.98 -7 44 C-7.02094727 43.24493164 -7.04189453 42.48986328 -7.06347656 41.71191406 C-7.14764582 38.22474993 -7.19897679 34.73780056 -7.25 31.25 C-7.28351563 30.06277344 -7.31703125 28.87554687 -7.3515625 27.65234375 C-7.4629737 17.45821881 -5.68144049 8.60576852 0 0 Z " fill="#E5F7E8" transform="translate(82,17)"/>
<path d="M0 0 C1 1 1 1 1.0625 4.0625 C1.041875 5.031875 1.02125 6.00125 1 7 C0.01 7 -0.98 7 -2 7 C-2.33 5.35 -2.66 3.7 -3 2 C-7.66522932 2.33154227 -7.66522932 2.33154227 -11.8125 4.25 C-14.49158144 8.19812001 -15.27629068 11.83674994 -15.25 16.5625 C-15.25773437 17.95662109 -15.25773437 17.95662109 -15.265625 19.37890625 C-14.98526027 22.14544645 -14.57769071 23.71833969 -13 26 C-9.94081441 28.1148283 -7.40751199 28.22125032 -3.75 28.125 C-2.41195312 28.09792969 -2.41195312 28.09792969 -1.046875 28.0703125 C-0.37140625 28.04710937 0.3040625 28.02390625 1 28 C0.9175 26.96875 0.835 25.9375 0.75 24.875 C1.04306417 20.33250543 1.96599799 18.36200222 5 15 C7.75 14.625 7.75 14.625 10 15 C10.8125 17.125 10.8125 17.125 11 20 C9.54099238 22.22661984 7.80208169 24.02210546 6 26 C6 26.66 6 27.32 6 28 C8.91634129 28.2502157 8.91634129 28.2502157 12 28 C14.75435247 23.8684713 14.38544151 19.87718841 14.47851562 15.06835938 C14.65838322 10.3786408 15.44206018 7.0776938 18 3 C20.125 2.0625 20.125 2.0625 22 2 C23 3 23 3 23.3125 6.3125 C23.29459151 11.28210505 21.58085775 15.49169446 19.77734375 20.0703125 C18.88803903 23.42196344 19.21087729 25.65491381 20 29 C21.32 28.67 22.64 28.34 24 28 C24.10957031 27.39671875 24.21914062 26.7934375 24.33203125 26.171875 C26.0710894 17.40589085 26.0710894 17.40589085 29 15 C32.1875 14.75 32.1875 14.75 35 15 C34.5988758 20.21461466 33.94972654 22.55991559 30 26 C30 26.66 30 27.32 30 28 C32.91634129 28.2502157 32.91634129 28.2502157 36 28 C38.81408167 23.7788775 38.68562622 19.36413673 39.03515625 14.42382812 C39.51167654 9.3034827 40.63149427 6.08669657 44 2 C46.25 1.125 46.25 1.125 48 1 C49.8595423 4.7190846 48.76133684 9.02854886 48 13 C47.0634799 15.38698415 45.98692253 17.64954915 44.85546875 19.94921875 C43.71133046 22.69201602 43.69947759 25.0699065 44 28 C45.65 28.33 47.3 28.66 49 29 C48.505 27.6696875 48.505 27.6696875 48 26.3125 C47.07864193 23.26050138 46.65050298 21.1454732 47 18 C47.66 17.34 48.32 16.68 49 16 C51.625 16.375 51.625 16.375 54 17 C54.125 24.625 54.125 24.625 53 28 C56.39417765 24.87378374 58.6062718 22.43458973 60 18 C59.01 17.01 59.01 17.01 58 16 C58.53571429 12.46428571 58.53571429 12.46428571 60 11 C61.66617115 10.95936168 63.33388095 10.957279 65 11 C65 12.98 65 14.96 65 17 C66.32 17 67.64 17 69 17 C69.495 22.445 69.495 22.445 70 28 C70.99 27.67 71.98 27.34 73 27 C74.13678329 24.73955829 74.13678329 24.73955829 75 22.0625 C76.6728972 17.21806854 76.6728972 17.21806854 80 15 C83.02329256 14.7389212 85.95876242 14.91184819 89 15 C88.67 19.62 88.34 24.24 88 29 C92.39869735 26.80065133 94.40986319 24.57738804 96 20 C95.69485998 16.27528604 95.69485998 16.27528604 95 13 C95.66 12.34 96.32 11.68 97 11 C98.32 11 99.64 11 101 11 C101 12.98 101 14.96 101 17 C102.65 17 104.3 17 106 17 C105.67 20.63 105.34 24.26 105 28 C109.95444668 26.65289619 109.95444668 26.65289619 111.07421875 23.90625 C111.27660156 23.1121875 111.47898438 22.318125 111.6875 21.5 C112.83443709 17.16556291 112.83443709 17.16556291 115 15 C117.625 14.875 117.625 14.875 120 15 C120.8125 17.125 120.8125 17.125 121 20 C119.54099238 22.22661984 117.80208169 24.02210546 116 26 C116 26.66 116 27.32 116 28 C120.42664564 28.30495485 120.42664564 28.30495485 124.375 26.5 C124.91125 26.005 125.4475 25.51 126 25 C124.25 29.875 124.25 29.875 122 31 C118.71202924 31.12407437 115.71849103 31.16166048 112.5 30.4375 C109.17712481 29.85599684 106.29947246 30.41774015 103 31 C101.50501087 28.01002175 101.88422554 25.29957225 102 22 C102.495 20.515 102.495 20.515 103 19 C99.18806678 20.74259804 97.53634618 22.54900595 95.5625 26.125 C93.40419315 29.87797943 93.40419315 29.87797943 89.6875 31 C88.800625 31 87.91375 31 87 31 C86.01 29.68 85.02 28.36 84 27 C83.2265625 28.0209375 83.2265625 28.0209375 82.4375 29.0625 C80 31 80 31 76.3125 30.6875 C75.219375 30.460625 74.12625 30.23375 73 30 C72.505 30.495 72.505 30.495 72 31 C69.5 31.125 69.5 31.125 67 31 C66 30 66 30 65.90234375 27.49609375 C65.91394531 26.48675781 65.92554687 25.47742188 65.9375 24.4375 C65.94652344 23.42558594 65.95554687 22.41367188 65.96484375 21.37109375 C65.97644531 20.58863281 65.98804687 19.80617187 66 19 C62.95259146 19.65869435 62.95259146 19.65869435 61.9296875 21.7421875 C61.58164063 22.44601563 61.23359375 23.14984375 60.875 23.875 C58.79346109 27.44426457 57.1913513 28.69253348 53.25 29.9375 C51.83333333 30.29166667 50.41666667 30.64583333 49 31 C48.67 31.33 48.34 31.66 48 32 C44.83379087 32.34229288 43.39516153 32.25632099 40.6875 30.5 C40.130625 30.005 39.57375 29.51 39 29 C38.50757813 29.32484375 38.01515625 29.6496875 37.5078125 29.984375 C33.99348915 31.40762121 30.60481877 31.29003383 26.875 31.25 C26.14667969 31.25773437 25.41835937 31.26546875 24.66796875 31.2734375 C19.25342069 31.25342069 19.25342069 31.25342069 17 29 C14.73725212 29.35355436 13.04911148 29.97544426 11 31 C7.4238452 31.32060398 3.83875439 31.32438936 0.25 31.375 C-1.235 31.43107422 -1.235 31.43107422 -2.75 31.48828125 C-10.97001397 31.58718516 -10.97001397 31.58718516 -14.578125 28.7265625 C-19.15630588 23.57241693 -19.49924893 19.86231253 -19.3828125 13.05078125 C-18.66282277 7.3129039 -15.91869904 3.75880745 -11.75 -0.0625 C-7.74344287 -1.42837175 -4.0940653 -0.91355176 0 0 Z " fill="#6A8D70" transform="translate(59,157)"/>
<path d="M0 0 C1.68511794 2.5276769 2.78481317 4.74795925 4 7.5 C12.03043404 23.58434887 26.44339851 30.87674314 42.51171875 36.94921875 C48.07609492 39.18819524 52.39952541 42.11364163 56 47 C56.6875 49.21875 56.6875 49.21875 57 51 C56.113125 50.896875 55.22625 50.79375 54.3125 50.6875 C49.89677989 51.10407737 48.86023794 52.69972545 46 56 C40.18879018 61.94635423 40.18879018 61.94635423 36.8359375 62.09765625 C35.61777344 62.08025391 35.61777344 62.08025391 34.375 62.0625 C33.14910156 62.04896484 33.14910156 62.04896484 31.8984375 62.03515625 C31.27195313 62.02355469 30.64546875 62.01195312 30 62 C29.67 61.34 29.34 60.68 29 60 C30.485 59.505 30.485 59.505 32 59 C33.70855022 55.99992729 33.70855022 55.99992729 35 53 C34.01 53.33 33.02 53.66 32 54 C23.29673539 54.65305882 17.63928828 53.91421628 10.6875 48.5 C8 46 8 46 7 43 C9.64 42.67 12.28 42.34 15 42 C13.80375 41.505 12.6075 41.01 11.375 40.5 C6.51089174 38.06362606 3.60641949 34.74059573 1 30 C0.125 26.5 0.125 26.5 0 24 C1.98 24.99 3.96 25.98 6 27 C5.57847656 26.18015625 5.15695313 25.3603125 4.72265625 24.515625 C4.17480469 23.43796875 3.62695312 22.3603125 3.0625 21.25 C2.51722656 20.18265625 1.97195312 19.1153125 1.41015625 18.015625 C-0.58598503 13.74686858 -1.13887825 10.51028751 -1.125 5.8125 C-1.12757812 4.93207031 -1.13015625 4.05164062 -1.1328125 3.14453125 C-1 1 -1 1 0 0 Z " fill="#50915C" transform="translate(72,58)"/>
<path d="M0 0 C0.33 0 0.66 0 1 0 C1.03867188 1.72283203 1.03867188 1.72283203 1.078125 3.48046875 C1.7124946 23.11622336 7.28072913 38.67198954 21.49707031 52.60400391 C27.40244528 58.08921087 34.03815631 62.45067638 40.9375 66.5625 C46.86770831 70.23358133 49.81688877 74.4506663 52 81 C52.06937062 83.22818441 52.08457084 85.45834524 52.0625 87.6875 C52.05347656 88.86699219 52.04445312 90.04648438 52.03515625 91.26171875 C52.02355469 92.16535156 52.01195312 93.06898437 52 94 C49.59297801 91.77650461 47.99968637 89.48658569 46.3125 86.6875 C40.91829542 78.58966262 33.38131204 74.97885101 24.81103516 70.89038086 C10.42631811 64.00259045 0.62731759 53.35328141 -6 39 C-9.12082258 28.12120039 -7.70096766 15.12516111 -3 5 C-2.05468599 3.30171875 -1.06665176 1.62481747 0 0 Z " fill="#51925D" transform="translate(82,17)"/>
<path d="M0 0 C0.66 0.33 1.32 0.66 2 1 C1.73445313 1.49628906 1.46890625 1.99257813 1.1953125 2.50390625 C-3.87035983 12.24700595 -5.85345982 22.02597904 -2.84375 32.84765625 C-1.74362683 35.65398898 -0.3071217 38.22354828 1.125 40.875 C4.3506115 47.12905849 5.47167476 52.36879752 3.30859375 59.17578125 C2.5 61.125 2.5 61.125 1 64 C0.34 64 -0.32 64 -1 64 C-1.53367188 63.11957031 -2.06734375 62.23914063 -2.6171875 61.33203125 C-5.25878009 57.17207173 -8.96423258 55.16404986 -13.125 52.6875 C-20.96027349 47.83188459 -28.79846605 42.80230093 -34 35 C-32.35 35.33 -30.7 35.66 -29 36 C-28.67 36.99 -28.34 37.98 -28 39 C-25.98491642 39.73323796 -25.98491642 39.73323796 -24 40 C-23.67 41.32 -23.34 42.64 -23 44 C-22.34 44 -21.68 44 -21 44 C-21.061875 42.1128125 -21.061875 42.1128125 -21.125 40.1875 C-21.2390374 36.70935927 -21.05925681 36.08888522 -19 33 C-18.67 34.32 -18.34 35.64 -18 37 C-17.97421875 36.16597656 -17.9484375 35.33195312 -17.921875 34.47265625 C-17.55076528 27.10950208 -16.52204338 21.47258539 -13 15 C-11.6942852 12.53364981 -10.95186312 10.76894299 -10.375 8 C-8.37095406 3.62753613 -5.24770127 2.8204434 -1 1 C-0.67 0.67 -0.34 0.34 0 0 Z " fill="#D4F3D7" transform="translate(132,29)"/>
<path d="M0 0 C3.64528671 1.97576515 6.82029511 4.34799081 10 7 C9.41347656 7.43699219 8.82695312 7.87398438 8.22265625 8.32421875 C1.85918399 13.12198606 -2.21051237 16.73004101 -4.8515625 24.5078125 C-8.26290901 34.46450678 -12.60949535 42.90762584 -22.14453125 48.1875 C-29.05881256 51.40448387 -35.47766036 51.42445804 -43 51 C-40.86229328 48.86229328 -39.16867709 48.06482377 -36.4375 46.8125 C-21.78146921 39.57937977 -13.59397524 28.48613936 -7 14 C-8.65 14.66 -10.3 15.32 -12 16 C-11.34 14.35 -10.68 12.7 -10 11 C-10.99 10.67 -11.98 10.34 -13 10 C-12.34 9.01 -11.68 8.02 -11 7 C-11.99 7.33 -12.98 7.66 -14 8 C-13.40138258 5.64828869 -12.73075648 3.3140622 -12 1 C-8.18449343 -0.90775328 -4.13537982 -0.73314213 0 0 Z " fill="#589061" transform="translate(150,88)"/>
<path d="M0 0 C-1.45106371 8.31063761 -4.12812296 16.54989062 -11 22 C-11.66 22 -12.32 22 -13 22 C-13 22.66 -13 23.32 -13 24 C-14.98 24.66 -16.96 25.32 -19 26 C-19.33 25.67 -19.66 25.34 -20 25 C-21.0725 25.020625 -22.145 25.04125 -23.25 25.0625 C-26.80208608 25.00329857 -28.85105168 24.52676282 -32 23 C-29.35122304 21.58101234 -26.91985181 20.68088981 -24 20 C-24.97839844 19.85304687 -24.97839844 19.85304687 -25.9765625 19.703125 C-31.61999455 18.73758205 -35.55094954 17.65050294 -40 14 C-40.33 13.34 -40.66 12.68 -41 12 C-38.03 12.33 -35.06 12.66 -32 13 C-33.2375 12.319375 -34.475 11.63875 -35.75 10.9375 C-40.11764969 8.24256721 -41.83623978 5.59799047 -44 1 C-41.65249465 1.90871175 -39.35993125 2.80020765 -37.15625 4.0234375 C-29.56400422 8.01786532 -21.28807408 8.42078006 -13.01953125 6.19921875 C-9.62878689 4.90202113 -6.74666727 3.5688247 -3.8515625 1.36328125 C-2 0 -2 0 0 0 Z " fill="#51915C" transform="translate(109,123)"/>
<path d="M0 0 C1.32 0 2.64 0 4 0 C4 1.98 4 3.96 4 6 C5.65 6 7.3 6 9 6 C8.67 9.63 8.34 13.26 8 17 C12.95444668 15.65289619 12.95444668 15.65289619 14.07421875 12.90625 C14.27660156 12.1121875 14.47898438 11.318125 14.6875 10.5 C15.83443709 6.16556291 15.83443709 6.16556291 18 4 C20.625 3.875 20.625 3.875 23 4 C23.8125 6.125 23.8125 6.125 24 9 C22.54099238 11.22661984 20.80208169 13.02210546 19 15 C19 15.66 19 16.32 19 17 C23.42664564 17.30495485 23.42664564 17.30495485 27.375 15.5 C27.91125 15.005 28.4475 14.51 29 14 C27.25 18.875 27.25 18.875 25 20 C21.71202924 20.12407437 18.71849103 20.16166048 15.5 19.4375 C12.17712481 18.85599684 9.29947246 19.41774015 6 20 C4.50501087 17.01002175 4.88422554 14.29957225 5 11 C5.33 10.01 5.66 9.02 6 8 C2.18806678 9.74259804 0.53634618 11.54900595 -1.4375 15.125 C-3.59580685 18.87797943 -3.59580685 18.87797943 -7.3125 20 C-8.199375 20 -9.08625 20 -10 20 C-10.99 18.68 -11.98 17.36 -13 16 C-13.7734375 17.0209375 -13.7734375 17.0209375 -14.5625 18.0625 C-17 20 -17 20 -20.6875 19.6875 C-21.780625 19.460625 -22.87375 19.23375 -24 19 C-24.33 19.33 -24.66 19.66 -25 20 C-27.5 20.125 -27.5 20.125 -30 20 C-31 19 -31 19 -31.09765625 16.71484375 C-31.08605469 15.79832031 -31.07445313 14.88179687 -31.0625 13.9375 C-31.05347656 13.01839844 -31.04445313 12.09929687 -31.03515625 11.15234375 C-31.02355469 10.44207031 -31.01195313 9.73179687 -31 9 C-30.67 9.66 -30.34 10.32 -30 11 C-29.34 11 -28.68 11 -28 11 C-27.67 12.98 -27.34 14.96 -27 17 C-26.01 16.67 -25.02 16.34 -24 16 C-22.86321671 13.73955829 -22.86321671 13.73955829 -22 11.0625 C-20.3271028 6.21806854 -20.3271028 6.21806854 -17 4 C-13.97670744 3.7389212 -11.04123758 3.91184819 -8 4 C-8.33 8.62 -8.66 13.24 -9 18 C-4.60130265 15.80065133 -2.59013681 13.57738804 -1 9 C-1.30514002 5.27528604 -1.30514002 5.27528604 -2 2 C-1.34 1.34 -0.68 0.68 0 0 Z " fill="#699073" transform="translate(156,168)"/>
<path d="M0 0 C0.66 0.33 1.32 0.66 2 1 C1.73445312 1.49628906 1.46890625 1.99257813 1.1953125 2.50390625 C-3.87035983 12.24700595 -5.85345982 22.02597904 -2.84375 32.84765625 C-1.74362683 35.65398898 -0.3071217 38.22354828 1.125 40.875 C4.00939794 46.43977748 4.99803388 50.79631214 4 57 C3 60.125 3 60.125 2 62 C1.00357789 60.02038262 0.01823022 58.03852858 -0.9296875 56.03515625 C-2.43964102 52.88422018 -3.8605339 50.17327607 -6.0625 47.4375 C-11.76382021 40.26487135 -12.69670636 31.83784922 -12 23 C-10.4381751 14.46290627 -6.4265322 5.9483676 0 0 Z " fill="#5D9164" transform="translate(132,29)"/>
<path d="M0 0 C2.26116092 2.90047726 4.13479099 5.8963077 6 9.0625 C13.74498474 21.13887954 22.46769784 27.33121766 35.1640625 33.14306641 C45.70307864 38.06220825 52.78778823 44.57557647 58 55 C58 55.66 58 56.32 58 57 C57.01 57.33 56.02 57.66 55 58 C54.731875 57.35933594 54.46375 56.71867187 54.1875 56.05859375 C50.57658597 48.08845126 46.5783919 42.72033306 38.27734375 39.44921875 C36.19229093 38.67438654 34.09904205 37.92838802 32.00024414 37.19165039 C18.04704056 32.27053102 6.34078003 22.99789491 -1 10 C-2.38055942 6.11263532 -1.47456067 3.81650998 0 0 Z " fill="#E6F7EA" transform="translate(76,56)"/>
<path d="M0 0 C1 1 1 1 1.0625 4.0625 C1.041875 5.031875 1.02125 6.00125 1 7 C0.01 7 -0.98 7 -2 7 C-2.33 5.35 -2.66 3.7 -3 2 C-7.66522932 2.33154227 -7.66522932 2.33154227 -11.8125 4.25 C-14.49158144 8.19812001 -15.27629068 11.83674994 -15.25 16.5625 C-15.25773437 17.95662109 -15.25773437 17.95662109 -15.265625 19.37890625 C-14.98526027 22.14544645 -14.57769071 23.71833969 -13 26 C-9.94081441 28.1148283 -7.40751199 28.22125032 -3.75 28.125 C-2.41195312 28.09792969 -2.41195312 28.09792969 -1.046875 28.0703125 C-0.37140625 28.04710937 0.3040625 28.02390625 1 28 C0.9175 26.96875 0.835 25.9375 0.75 24.875 C1.04306417 20.33250543 1.96599799 18.36200222 5 15 C7.75 14.625 7.75 14.625 10 15 C10.8125 17.125 10.8125 17.125 11 20 C9.54099238 22.22661984 7.80208169 24.02210546 6 26 C6 26.66 6 27.32 6 28 C6.928125 28 7.85625 28 8.8125 28 C10.875 28 12.9375 28 15 28 C10.35345295 32.04842341 6.03985805 31.51542336 0.125 31.5 C-0.85597656 31.52835938 -1.83695313 31.55671875 -2.84765625 31.5859375 C-10.92142562 31.60772905 -10.92142562 31.60772905 -14.5703125 28.71875 C-19.16490324 23.57753593 -19.49921251 19.86018186 -19.3828125 13.05078125 C-18.66282277 7.3129039 -15.91869904 3.75880745 -11.75 -0.0625 C-7.74344287 -1.42837175 -4.0940653 -0.91355176 0 0 Z " fill="#67886A" transform="translate(59,157)"/>
<path d="M0 0 C0.66 0.33 1.32 0.66 2 1 C1.34 1.66 0.68 2.32 0 3 C0.99 3.33 1.98 3.66 3 4 C2.67 5.32 2.34 6.64 2 8 C2.66 8.33 3.32 8.66 4 9 C3.01 9 2.02 9 1 9 C1 10.32 1 11.64 1 13 C0.67 13.33 0.34 13.66 0 14 C0.99 14 1.98 14 3 14 C2.67 13.01 2.34 12.02 2 11 C5 9 5 9 7.1875 9.375 C7.785625 9.58125 8.38375 9.7875 9 10 C1.80814945 16.79007119 -6.08135765 21.77537994 -15 26 C-15 26.66 -15 27.32 -15 28 C-15.66 28 -16.32 28 -17 28 C-17 28.66 -17 29.32 -17 30 C-21.625 32.125 -21.625 32.125 -25 31 C-24.0925 30.34 -23.185 29.68 -22.25 29 C-19.06409632 26.37012668 -17.51870968 23.60796831 -15.859375 19.8671875 C-15 18 -15 18 -13 15 C-12.67 15.66 -12.34 16.32 -12 17 C-11.45472656 15.78763672 -11.45472656 15.78763672 -10.8984375 14.55078125 C-7.99300693 8.37487883 -5.73000716 3.82000477 0 0 Z " fill="#E2F2E1" transform="translate(121,114)"/>
<path d="M0 0 C1.32 0 2.64 0 4 0 C4 1.98 4 3.96 4 6 C5.65 6 7.3 6 9 6 C8.67 9.63 8.34 13.26 8 17 C12.95444668 15.65289619 12.95444668 15.65289619 14.07421875 12.90625 C14.27660156 12.1121875 14.47898438 11.318125 14.6875 10.5 C15.83443709 6.16556291 15.83443709 6.16556291 18 4 C20.625 3.875 20.625 3.875 23 4 C23.8125 6.125 23.8125 6.125 24 9 C22.54099238 11.22661984 20.80208169 13.02210546 19 15 C19 15.66 19 16.32 19 17 C23.42664564 17.30495485 23.42664564 17.30495485 27.375 15.5 C27.91125 15.005 28.4475 14.51 29 14 C27.25 18.875 27.25 18.875 25 20 C21.71202924 20.12407437 18.71849103 20.16166048 15.5 19.4375 C12.17712481 18.85599684 9.29947246 19.41774015 6 20 C4.50501087 17.01002175 4.88422554 14.29957225 5 11 C5.33 10.01 5.66 9.02 6 8 C3.37098712 9.52206009 1.15634036 10.84365964 -1 13 C-2 11 -2 11 -1.5 9.1875 C-0.82194015 6.92950151 -0.82194015 6.92950151 -1.5625 4.375 C-1.706875 3.59125 -1.85125 2.8075 -2 2 C-1.34 1.34 -0.68 0.68 0 0 Z " fill="#658F6F" transform="translate(156,168)"/>
<path d="M0 0 C1.2065625 0.0309375 1.2065625 0.0309375 2.4375 0.0625 C2.4375 2.0425 2.4375 4.0225 2.4375 6.0625 C3.7575 6.0625 5.0775 6.0625 6.4375 6.0625 C6.4375 7.7125 6.4375 9.3625 6.4375 11.0625 C5.7775 11.0625 5.1175 11.0625 4.4375 11.0625 C4.1075 10.4025 3.7775 9.7425 3.4375 9.0625 C2.4475 9.0625 1.4575 9.0625 0.4375 9.0625 C-0.70893239 10.74973123 -0.70893239 10.74973123 -1.6875 12.875 C-3.76519073 16.482279 -5.33728587 17.75064699 -9.3125 19 C-10.72916667 19.35416667 -12.14583333 19.70833333 -13.5625 20.0625 C-13.8925 20.3925 -14.2225 20.7225 -14.5625 21.0625 C-16.9375 21.375 -16.9375 21.375 -19.5625 21.0625 C-21.375 19.0625 -21.375 19.0625 -22.5625 17.0625 C-21.5725 15.7425 -20.5825 14.4225 -19.5625 13.0625 C-19.2325 14.3825 -18.9025 15.7025 -18.5625 17.0625 C-16.9125 17.3925 -15.2625 17.7225 -13.5625 18.0625 C-13.8925 17.175625 -14.2225 16.28875 -14.5625 15.375 C-15.48385807 12.32300138 -15.91199702 10.2079732 -15.5625 7.0625 C-14.9025 6.4025 -14.2425 5.7425 -13.5625 5.0625 C-10.9375 5.4375 -10.9375 5.4375 -8.5625 6.0625 C-8.4375 13.6875 -8.4375 13.6875 -9.5625 17.0625 C-6.16832235 13.93628374 -3.9562282 11.49708973 -2.5625 7.0625 C-3.2225 6.4025 -3.8825 5.7425 -4.5625 5.0625 C-3.80953264 0.09291543 -3.80953264 0.09291543 0 0 Z " fill="#64866F" transform="translate(121.5625,167.9375)"/>
<path d="M0 0 C0.53109375 0.16371094 1.0621875 0.32742187 1.609375 0.49609375 C4.53876764 1.11356377 7.25822936 1.09501925 10.25 1.0625 C11.86648437 1.04896484 11.86648437 1.04896484 13.515625 1.03515625 C14.74539062 1.01775391 14.74539062 1.01775391 16 1 C16.33 1.66 16.66 2.32 17 3 C12.38 3 7.76 3 3 3 C2.67 4.98 2.34 6.96 2 9 C2.66 9 3.32 9 4 9 C4 9.99 4 10.98 4 12 C4.66 12.33 5.32 12.66 6 13 C5.34 14.32 4.68 15.64 4 17 C5.32 16.67 6.64 16.34 8 16 C6.62593344 22.87033282 3.16171689 28.4108791 -1 34 C-1.99 34.66 -2.98 35.32 -4 36 C-3.505 33.03 -3.505 33.03 -3 30 C-2.34 30 -1.68 30 -1 30 C-0.61781233 28.34385343 -0.28604898 26.67542976 0 25 C-0.33 24.67 -0.66 24.34 -1 24 C-1.21117147 22.08772505 -1.36891707 20.1694286 -1.5 18.25 C-1.71057368 15.19668164 -1.92285606 12.3294386 -2.62109375 9.34765625 C-3.23090042 5.56936954 -1.65380868 3.3737697 0 0 Z " fill="#E1F1E2" transform="translate(135,86)"/>
<path d="M0 0 C0.33 0 0.66 0 1 0 C0.96519531 1.0621875 0.93039063 2.124375 0.89453125 3.21875 C0.54534704 17.90012199 4.48012343 25.28293704 13 37 C12.67 37.66 12.34 38.32 12 39 C11.34773438 38.45730469 10.69546875 37.91460937 10.0234375 37.35546875 C5.4888757 33.64354869 1.31215759 30.45176504 -4 28 C-5.38226016 25.23547967 -5.09525387 22.9538637 -5.0625 19.875 C-5.05347656 18.77929688 -5.04445313 17.68359375 -5.03515625 16.5546875 C-5.02355469 15.71164063 -5.01195313 14.86859375 -5 14 C-4.34 15.32 -3.68 16.64 -3 18 C-2.95101562 17.11957031 -2.90203125 16.23914063 -2.8515625 15.33203125 C-2.77679688 14.17058594 -2.70203125 13.00914063 -2.625 11.8125 C-2.55539063 10.66394531 -2.48578125 9.51539063 -2.4140625 8.33203125 C-2.02490426 5.20040883 -1.3190149 2.84714191 0 0 Z " fill="#588E61" transform="translate(117,48)"/>
<path d="M0 0 C7.84749824 2.76970526 12.24017849 6.70504751 16 14 C17.14077657 17.42232972 17.09815117 20.08673217 17.0625 23.6875 C17.05347656 24.86699219 17.04445312 26.04648438 17.03515625 27.26171875 C17.02355469 28.16535156 17.01195312 29.06898437 17 30 C14.58479341 27.75628737 12.88197446 25.40766766 11.125 22.625 C8.71572493 18.93278596 6.25129916 15.96441982 3 13 C3.66 13 4.32 13 5 13 C5.33 11.68 5.66 10.36 6 9 C6.66 9 7.32 9 8 9 C8.33 10.65 8.66 12.3 9 14 C9.77242269 12.16299211 9.77242269 12.16299211 10 10 C8.4692217 7.82468347 7.47123657 7.11087919 4.875 6.5 C4.25625 6.335 3.6375 6.17 3 6 C2.67 5.01 2.34 4.02 2 3 C1.34 3 0.68 3 0 3 C0 2.01 0 1.02 0 0 Z " fill="#54905D" transform="translate(117,81)"/>
<path d="M0 0 C0.66 0.33 1.32 0.66 2 1 C1.73445312 1.49628906 1.46890625 1.99257813 1.1953125 2.50390625 C-2.99001078 10.55377986 -4.38174049 18.0026972 -5 27 C-5.99 27 -6.98 27 -8 27 C-7.9071875 28.8871875 -7.9071875 28.8871875 -7.8125 30.8125 C-7.79173989 34.72231986 -7.79173989 34.72231986 -9.5 37 C-10.2425 37.495 -10.2425 37.495 -11 38 C-13.55607276 28.41472717 -12.10494216 18.96386432 -7.5703125 10.25390625 C-5.34888926 6.44654154 -3.25161785 3.009682 0 0 Z " fill="#598D63" transform="translate(132,29)"/>
<path d="M0 0 C0.66 0 1.32 0 2 0 C2 3.3 2 6.6 2 10 C4.31 9.34 6.62 8.68 9 8 C9.66 9.32 10.32 10.64 11 12 C10.05125 12.2475 9.1025 12.495 8.125 12.75 C5.01357213 13.68953748 5.01357213 13.68953748 3.6875 15.6875 C2.77367359 18.76127974 2.36702984 21.81907471 2 25 C0.35 25.33 -1.3 25.66 -3 26 C-5 23 -5 23 -4.8125 20.375 C-4.1665535 17.69183763 -3.40850929 15.22074082 -2.5 12.625 C-1.02801432 8.39573384 -0.40486458 4.45351034 0 0 Z " fill="#EDF9EE" transform="translate(82,160)"/>
<path d="M0 0 C-1.20337119 6.89203498 -3.32135086 12.06080693 -7 18 C-7.99 18 -8.98 18 -10 18 C-10.625 15.125 -10.625 15.125 -11 12 C-10.34 11.34 -9.68 10.68 -9 10 C-9.78375 10.20625 -10.5675 10.4125 -11.375 10.625 C-16.18440843 11.12252501 -20.33275932 10.11607929 -25 9 C-25 8.67 -25 8.34 -25 8 C-24.2265625 7.90203125 -23.453125 7.8040625 -22.65625 7.703125 C-15.36030232 6.65568697 -6.28862978 0 0 0 Z " fill="#569060" transform="translate(109,123)"/>
<path d="M0 0 C1 1 1 1 1.0625 4.0625 C1.041875 5.031875 1.02125 6.00125 1 7 C0.01 7 -0.98 7 -2 7 C-2.33 5.35 -2.66 3.7 -3 2 C-7.66522932 2.33154227 -7.66522932 2.33154227 -11.8125 4.25 C-14.49158144 8.19812001 -15.27629068 11.83674994 -15.25 16.5625 C-15.25773437 17.95662109 -15.25773437 17.95662109 -15.265625 19.37890625 C-14.9899972 22.09870409 -14.4555808 23.70466104 -13 26 C-11.67607028 27.01241685 -10.34400833 28.01439389 -9 29 C-9 29.66 -9 30.32 -9 31 C-13.42741644 29.64717831 -15.36309221 27.76701112 -18 24 C-20.10991306 19.78017388 -19.51034717 14.5816561 -19 10 C-17.39570402 5.79954041 -15.03738129 2.95093285 -11.75 -0.0625 C-7.74344287 -1.42837175 -4.0940653 -0.91355176 0 0 Z " fill="#6C8972" transform="translate(59,157)"/>
<path d="M0 0 C1.27445454 0.42683632 2.54445882 0.86697202 3.8125 1.3125 C4.52019531 1.55613281 5.22789063 1.79976562 5.95703125 2.05078125 C8.18433307 3.08564615 9.44966252 4.10514308 11 6 C11.4375 8.4375 11.4375 8.4375 11 11 C9.125 13.1875 9.125 13.1875 7 15 C6.34 15.66 5.68 16.32 5 17 C4.773125 16.38125 4.54625 15.7625 4.3125 15.125 C2.62070165 12.38589791 1.00755839 11.94975528 -2 11 C-2 9.68 -2 8.36 -2 7 C-2.66 7 -3.32 7 -4 7 C-4 6.34 -4 5.68 -4 5 C-2.66666667 4 -1.33333333 3 0 2 C0 1.34 0 0.68 0 0 Z " fill="#4E9158" transform="translate(89,60)"/>
<path d="M0 0 C0.33 0 0.66 0 1 0 C1.06058594 1.21816406 1.12117188 2.43632812 1.18359375 3.69140625 C1.26806403 5.31511277 1.35270872 6.93881022 1.4375 8.5625 C1.47681641 9.36236328 1.51613281 10.16222656 1.55664062 10.98632812 C1.75356768 14.69764574 2.0154107 18.30242317 2.66015625 21.96484375 C2.77230469 22.96644531 2.88445312 23.96804687 3 25 C2.34 25.66 1.68 26.32 1 27 C0.01 22.38 -0.98 17.76 -2 13 C-3.19250318 17.77001272 -3.67114552 22.5401681 -4.16210938 27.41992188 C-4.37359144 29.28887317 -4.67958422 31.14661462 -5 33 C-5.99 33.495 -5.99 33.495 -7 34 C-7.5323065 21.52036993 -7.10253272 10.81920053 0 0 Z " fill="#5B8E64" transform="translate(82,17)"/>
<path d="M0 0 C11.2941684 2.97214958 19.54011139 9.99122327 25.4375 19.875 C27 23 27 23 27 25 C26.01 25.33 25.02 25.66 24 26 C23.731875 25.35933594 23.46375 24.71867187 23.1875 24.05859375 C18.99224194 14.79866559 14.16529718 10.05021175 4.72583008 6.38378906 C1.5025438 5.19445759 -1.73859412 4.0805386 -5 3 C-5 2.67 -5 2.34 -5 2 C-3.35 2 -1.7 2 0 2 C0 1.34 0 0.68 0 0 Z " fill="#E0F7E7" transform="translate(107,88)"/>
<path d="M0 0 C1.5 1.375 1.5 1.375 3 3 C3 3.66 3 4.32 3 5 C2.113125 4.896875 1.22625 4.79375 0.3125 4.6875 C-4.10322011 5.10407737 -5.13976206 6.69972545 -8 10 C-13.81120982 15.94635423 -13.81120982 15.94635423 -17.1640625 16.09765625 C-18.38222656 16.08025391 -18.38222656 16.08025391 -19.625 16.0625 C-20.85089844 16.04896484 -20.85089844 16.04896484 -22.1015625 16.03515625 C-22.72804688 16.02355469 -23.35453125 16.01195313 -24 16 C-24.33 15.34 -24.66 14.68 -25 14 C-24.01 13.67 -23.02 13.34 -22 13 C-20.29144978 9.99992729 -20.29144978 9.99992729 -19 7 C-18.01 8.485 -18.01 8.485 -17 10 C-15.35 9.67 -13.7 9.34 -12 9 C-12 8.34 -12 7.68 -12 7 C-11.01 7 -10.02 7 -9 7 C-8.67 6.01 -8.34 5.02 -8 4 C-5.5625 2.75 -5.5625 2.75 -3 2 C-2.34 2.33 -1.68 2.66 -1 3 C-0.67 2.01 -0.34 1.02 0 0 Z M-19 12 C-18 14 -18 14 -18 14 Z " fill="#5D8F63" transform="translate(126,104)"/>
<path d="M0 0 C0.99 0 1.98 0 3 0 C4.0260734 1.31337396 5.02727325 2.64664105 6 4 C6.66 4 7.32 4 8 4 C8.33 3.01 8.66 2.02 9 1 C9 5 9 5 8 7 C7.34 7 6.68 7 6 7 C5.67 9.31 5.34 11.62 5 14 C4.030625 14.268125 3.06125 14.53625 2.0625 14.8125 C1.051875 15.204375 0.04125 15.59625 -1 16 C-1.33 16.99 -1.66 17.98 -2 19 C-3.65 19.33 -5.3 19.66 -7 20 C-6.38125 18.9275 -5.7625 17.855 -5.125 16.75 C-3.98602908 14.76779095 -2.91425095 12.81841378 -1.9375 10.75 C-0.88763762 8.79025689 0.36213963 7.48896397 2 6 C1.34 6 0.68 6 0 6 C-0.38218767 4.34385343 -0.71395102 2.67542976 -1 1 C-0.67 0.67 -0.34 0.34 0 0 Z " fill="#F7FBF8" transform="translate(126,109)"/>
<path d="M0 0 C0.99 0 1.98 0 3 0 C4.84630439 3.69260879 3.69042766 8.04036785 3 12 C2.17233771 14.48298687 1.17462512 16.65074975 0 19 C-0.99 18.67 -1.98 18.34 -3 18 C-3.22786458 16.01432292 -3.45572917 14.02864583 -3.68359375 12.04296875 C-3.97170735 9.80603607 -3.97170735 9.80603607 -5 7 C-2 2 -2 2 0 0 Z " fill="#64876A" transform="translate(104,158)"/>
<path d="M0 0 C0.66 0.33 1.32 0.66 2 1 C1.75035076 4.08543155 1.47158521 7.16756358 1.1875 10.25 C1.11724609 11.12269531 1.04699219 11.99539062 0.97460938 12.89453125 C0.17729168 21.25042066 0.17729168 21.25042066 -3 24 C-6.1875 24.25 -6.1875 24.25 -9 24 C-9 19.20468248 -7.95333246 18.5613715 -5 15 C-3.75983331 12.3205355 -3.75983331 12.3205355 -3 10 C-2.34 10 -1.68 10 -1 10 C-1.20625 9.278125 -1.4125 8.55625 -1.625 7.8125 C-2.05952211 4.55358415 -1.41680669 2.91695496 0 0 Z " fill="#EEFAF0" transform="translate(98,162)"/>
<path d="M0 0 C0.66 0 1.32 0 2 0 C1.814375 1.093125 1.62875 2.18625 1.4375 3.3125 C0.7421932 6.93624133 0.7421932 6.93624133 2 10 C0.890625 12.26171875 0.890625 12.26171875 -0.75 14.6875 C-1.54664063 15.89986328 -1.54664063 15.89986328 -2.359375 17.13671875 C-2.90078125 17.75160156 -3.4421875 18.36648437 -4 19 C-4.99 19 -5.98 19 -7 19 C-7.05437607 17.41705218 -7.09296271 15.83355744 -7.125 14.25 C-7.14820313 13.36828125 -7.17140625 12.4865625 -7.1953125 11.578125 C-6.98870725 8.85093574 -6.47305841 7.28684592 -5 5 C-4.34 4.67 -3.68 4.34 -3 4 C-2.505 3.319375 -2.01 2.63875 -1.5 1.9375 C-1.005 1.298125 -0.51 0.65875 0 0 Z " fill="#E6F5E9" transform="translate(154,167)"/>
<path d="M0 0 C0.66 0.33 1.32 0.66 2 1 C1.34 1.66 0.68 2.32 0 3 C0.99 3.33 1.98 3.66 3 4 C1.54331217 6.96783129 -0.01232086 9.86415313 -1.625 12.75 C-2.07101563 13.54921875 -2.51703125 14.3484375 -2.9765625 15.171875 C-3.31429687 15.77515625 -3.65203125 16.3784375 -4 17 C-4.33 15.68 -4.66 14.36 -5 13 C-5.598125 13.598125 -6.19625 14.19625 -6.8125 14.8125 C-8.54166667 16.54166667 -10.27083333 18.27083333 -12 20 C-10.07509235 11.76004442 -7.24343744 4.8289583 0 0 Z " fill="#B8CCBD" transform="translate(121,114)"/>
<path d="M0 0 C3 2 3 2 4 3 C4.33 2.01 4.66 1.02 5 0 C5.08126087 2.08268593 5.13930839 4.16628658 5.1875 6.25 C5.22230469 7.41015625 5.25710937 8.5703125 5.29296875 9.765625 C4.9776284 13.24698247 4.5217837 14.61831539 2 17 C-1.1875 17.25 -1.1875 17.25 -4 17 C-4 12.21906114 -2.86599064 11.5824883 0 8 C0 6.68 0 5.36 0 4 C-1.32 3.34 -2.64 2.68 -4 2 C-2.68 2 -1.36 2 0 2 C0 1.34 0 0.68 0 0 Z " fill="#E6F8E9" transform="translate(69,169)"/>
<path d="M0 0 C1.32 0.33 2.64 0.66 4 1 C4.19392201 6.52677733 3.7479503 10.75614911 2 16 C0.68 16 -0.64 16 -2 16 C-2 15.01 -2 14.02 -2 13 C-2.66 13 -3.32 13 -4 13 C-3.40546697 3.40546697 -3.40546697 3.40546697 0 0 Z " fill="#6E9178" transform="translate(78,159)"/>
<path d="M0 0 C1.32 0 2.64 0 4 0 C4.66666667 2.66666667 5.33333333 5.33333333 6 8 C6.28037109 9.05960938 6.28037109 9.05960938 6.56640625 10.140625 C7.11217657 12.48104545 7 14.58392124 7 17 C6.34 17 5.68 17 5 17 C4.67 17.66 4.34 18.32 4 19 C3.7525 18.195625 3.505 17.39125 3.25 16.5625 C2.8375 15.716875 2.425 14.87125 2 14 C0.68 13.67 -0.64 13.34 -2 13 C-1.34 8.71 -0.68 4.42 0 0 Z " fill="#51905D" transform="translate(124,56)"/>
<path d="M0 0 C2.36004428 3.54006642 2.28412067 5.2983358 2.4375 9.5 C2.81027258 15.79789466 3.3593173 22.18824108 6 28 C6.99 28.33 7.98 28.66 9 29 C9 31.31 9 33.62 9 36 C9.66 36 10.32 36 11 36 C11 36.66 11 37.32 11 38 C11.66 38 12.32 38 13 38 C13 38.66 13 39.32 13 40 C13.66 40.33 14.32 40.66 15 41 C14.67 42.32 14.34 43.64 14 45 C3.24683127 30.2597013 -0.61580855 18.17775609 0 0 Z " fill="#E6F8E8" transform="translate(83,19)"/>
<path d="M0 0 C1.875 0.6875 1.875 0.6875 2.875 1.6875 C4.45763877 1.734393 6.04210998 1.72496485 7.625 1.6875 C11.19206228 1.64661676 14.40375433 1.76183449 17.875 2.6875 C15.11004535 4.5308031 12.98770084 4.80298056 9.75 4.75 C6.0800965 4.39262683 6.0800965 4.39262683 3.875 5.6875 C3.875 5.0275 3.875 4.3675 3.875 3.6875 C2.575625 4.2134375 2.575625 4.2134375 1.25 4.75 C-6.69270467 7.05176339 -16.08306327 5.02782279 -24.125 3.6875 C-24.125 3.3575 -24.125 3.0275 -24.125 2.6875 C-22.08357606 2.51788614 -20.04184689 2.35194404 -18 2.1875 C-16.29457031 2.04828125 -16.29457031 2.04828125 -14.5546875 1.90625 C-11.125 1.6875 -11.125 1.6875 -7.8828125 1.78125 C-4.52881413 1.66723306 -3.2290174 -0.4748555 0 0 Z " fill="#EAF7E9" transform="translate(75.125,185.3125)"/>
<path d="M0 0 C0.66 0.33 1.32 0.66 2 1 C2.4140625 3.72265625 2.4140625 3.72265625 2.625 7.0625 C2.69976562 8.16722656 2.77453125 9.27195313 2.8515625 10.41015625 C2.90054688 11.26480469 2.94953125 12.11945313 3 13 C3.66 13 4.32 13 5 13 C5 13.66 5 14.32 5 15 C3.35 15.66 1.7 16.32 0 17 C0.33 20.63 0.66 24.26 1 28 C-0.65 28 -2.3 28 -4 28 C-5 27 -5 27 -5.3125 24.5 C-5.01691261 21.18942123 -4.4821457 19.65101512 -3.0625 16.75 C-0.45500313 11.32308954 0 5.96323711 0 0 Z " fill="#DAEEDC" transform="translate(107,158)"/>
<path d="M0 0 C1.89668064 2.84502097 3.23263478 5.57299885 4.625 8.6875 C5.07101563 9.68136719 5.51703125 10.67523438 5.9765625 11.69921875 C6.31429687 12.45847656 6.65203125 13.21773437 7 14 C5.68 14 4.36 14 3 14 C3.33 14.66 3.66 15.32 4 16 C4.66 15.67 5.32 15.34 6 15 C5.67 17.97 5.34 20.94 5 24 C-0.37655695 18.11139001 -1.34518703 10.6400998 -1.203125 2.96875 C-1 1 -1 1 0 0 Z " fill="#5C9065" transform="translate(72,58)"/>
<path d="M0 0 C-0.39832031 0.62003906 -0.79664063 1.24007812 -1.20703125 1.87890625 C-5.40183543 8.89065923 -7.11074539 15.05180074 -8.359375 23.0078125 C-8.67648438 24.48894531 -8.67648438 24.48894531 -9 26 C-9.66 26.33 -10.32 26.66 -11 27 C-11.08139142 24.60347472 -11.14067009 22.20974564 -11.1875 19.8125 C-11.22520508 18.80219727 -11.22520508 18.80219727 -11.26367188 17.77148438 C-11.33009133 13.23282191 -10.58239451 10.69099821 -8 7 C-7.5359375 5.4221875 -7.5359375 5.4221875 -7.0625 3.8125 C-6 1 -6 1 -4 -0.4375 C-2 -1 -2 -1 0 0 Z " fill="#E9FAEA" transform="translate(129,33)"/>
<path d="M0 0 C0.66 0.99 1.32 1.98 2 3 C3.65 2.34 5.3 1.68 7 1 C5.62593344 7.87033282 2.16171689 13.4108791 -2 19 C-2.99 19.66 -3.98 20.32 -5 21 C-4.67 19.02 -4.34 17.04 -4 15 C-3.34 15 -2.68 15 -2 15 C-1.09256414 11.5365715 -1.09256414 11.5365715 -1.5625 8.0625 C-2.20800344 5.01941234 -1.09765069 2.84097826 0 0 Z " fill="#EAF9EF" transform="translate(136,101)"/>
<path d="M0 0 C1.32 0.33 2.64 0.66 4 1 C3.01 1.495 3.01 1.495 2 2 C1.07501997 3.90470966 0.23247815 5.84997186 -0.5625 7.8125 C-1.21412109 9.39998047 -1.21412109 9.39998047 -1.87890625 11.01953125 C-3.44143083 15.17356 -4.12476251 18.53894792 -4.09765625 22.984375 C-4.09443359 23.91894531 -4.09121094 24.85351562 -4.08789062 25.81640625 C-4.07951172 26.78449219 -4.07113281 27.75257812 -4.0625 28.75 C-4.05798828 29.73355469 -4.05347656 30.71710937 -4.04882812 31.73046875 C-4.03706483 34.15370791 -4.02062684 36.57682273 -4 39 C-6.94160821 36.05839179 -6.76019994 32.65244706 -7.1875 28.6875 C-7.28224609 27.92759766 -7.37699219 27.16769531 -7.47460938 26.38476562 C-7.92805831 22.40064562 -8.2605923 18.88379016 -7 15 C-6.34 14.34 -5.68 13.68 -5 13 C-4.87625 11.9275 -4.7525 10.855 -4.625 9.75 C-3.89390298 5.36341789 -2.63676028 3.48732812 0 0 Z " fill="#E1F4E5" transform="translate(80,16)"/>
<path d="M0 0 C1.11375 0.185625 1.11375 0.185625 2.25 0.375 C3.125 2.4375 3.125 2.4375 3.25 5.375 C1.59828685 8.0576482 -0.31935414 10.36682354 -2.75 12.375 C-3.74 12.375 -4.73 12.375 -5.75 12.375 C-6.88807168 8.39174911 -6.95486352 6.80048577 -5.125 3 C-2.75 0.375 -2.75 0.375 0 0 Z " fill="#84AE8E" transform="translate(176.75,171.625)"/>
<path d="M0 0 C-0.165 0.61875 -0.33 1.2375 -0.5 1.875 C-1.07634644 3.96063386 -1.07634644 3.96063386 -1 6 C-0.34 6 0.32 6 1 6 C0.67 6.99 0.34 7.98 0 9 C-3 10 -3 10 -5.1875 9.0625 C-5.785625 8.711875 -6.38375 8.36125 -7 8 C-7 7.67 -7 7.34 -7 7 C-8.65 8.65 -10.3 10.3 -12 12 C-13.32 11.34 -14.64 10.68 -16 10 C-15.278125 9.649375 -14.55625 9.29875 -13.8125 8.9375 C-10.69325331 6.78868561 -9.14471641 4.65992045 -7.11328125 1.5234375 C-4.9223476 -1.47468224 -3.25767379 -0.97730214 0 0 Z " fill="#DAF0D6" transform="translate(127,109)"/>
<path d="M0 0 C0.33 0 0.66 0 1 0 C2.17293889 6.3778552 3.29530838 12.50321562 3 19 C1.35 19.33 -0.3 19.66 -2 20 C-2.1954625 17.75067773 -2.38108226 15.50049858 -2.5625 13.25 C-2.66691406 11.99703125 -2.77132812 10.7440625 -2.87890625 9.453125 C-2.97937281 6.58820754 -3.02855064 4.63604594 -2 2 C-1.34 1.34 -0.68 0.68 0 0 Z " fill="#4C9058" transform="translate(80,29)"/>
<path d="M0 0 C0.66 0 1.32 0 2 0 C1.67 1.32 1.34 2.64 1 4 C1.66 4 2.32 4 3 4 C2.125 8.75 2.125 8.75 1 11 C0.34 11 -0.32 11 -1 11 C-1 11.66 -1 12.32 -1 13 C-1.66 12.67 -2.32 12.34 -3 12 C-2.67 11.34 -2.34 10.68 -2 10 C-1.34 10 -0.68 10 0 10 C0 9.01 0 8.02 0 7 C-0.66 7.66 -1.32 8.32 -2 9 C-5.125 9.125 -5.125 9.125 -8 9 C-8 5 -8 5 -6.75 3.3125 C-4.82133929 1.86600447 -3.34092595 1.46818519 -1 1 C-0.67 0.67 -0.34 0.34 0 0 Z M-4 3 C-3 5 -3 5 -3 5 Z " fill="#ECF5EC" transform="translate(183,177)"/>
<path d="M0 0 C0.99 0 1.98 0 3 0 C3.33 3.63 3.66 7.26 4 11 C5.65 11 7.3 11 9 11 C13 11 13 11 16 13 C15.34 13 14.68 13 14 13 C13.67 13.99 13.34 14.98 13 16 C12.34 16 11.68 16 11 16 C11 15.01 11 14.02 11 13 C10.278125 13.185625 9.55625 13.37125 8.8125 13.5625 C5.87173027 14.01995307 3.85896942 13.73516357 1 13 C1.04125 12.071875 1.0825 11.14375 1.125 10.1875 C1.27136339 6.84190281 1.27136339 6.84190281 -1 4 C-1 4.66 -1 5.32 -1 6 C-1.66 6 -2.32 6 -3 6 C-1.125 1.125 -1.125 1.125 0 0 Z " fill="#E8F8ED" transform="translate(122,176)"/>
<path d="M0 0 C1.2065625 0.0309375 1.2065625 0.0309375 2.4375 0.0625 C2.4375 2.0425 2.4375 4.0225 2.4375 6.0625 C3.7575 6.0625 5.0775 6.0625 6.4375 6.0625 C6.4375 7.7125 6.4375 9.3625 6.4375 11.0625 C5.7775 11.0625 5.1175 11.0625 4.4375 11.0625 C4.1075 10.4025 3.7775 9.7425 3.4375 9.0625 C1.44178677 8.38310826 -0.55844773 7.71688441 -2.5625 7.0625 C-3.2225 6.4025 -3.8825 5.7425 -4.5625 5.0625 C-3.80953264 0.09291543 -3.80953264 0.09291543 0 0 Z " fill="#598760" transform="translate(121.5625,167.9375)"/>
<path d="M0 0 C1.67401097 0.64800425 3.33805262 1.32165413 5 2 C5.75925781 2.30292969 6.51851563 2.60585937 7.30078125 2.91796875 C8.10902344 3.25441406 8.91726562 3.59085937 9.75 3.9375 C10.52859375 4.25589844 11.3071875 4.57429687 12.109375 4.90234375 C14 6 14 6 15 9 C14.01 9.99 13.02 10.98 12 12 C6.01782125 8.84919226 2.89414377 6.15005551 0 0 Z " fill="#588C63" transform="translate(65,124)"/>
<path d="M0 0 C1.98 0.66 3.96 1.32 6 2 C6.3690205 11.41002278 6.3690205 11.41002278 4 16 C2.54120507 13.20344553 1.34614948 10.41743581 0.3125 7.4375 C0.04050781 6.67308594 -0.23148438 5.90867187 -0.51171875 5.12109375 C-1 3 -1 3 0 0 Z " fill="#578B5E" transform="translate(130,75)"/>
<path d="M0 0 C0.33292585 4.24480464 0.43885872 6.35542625 -2 9.9375 C-2.66 10.618125 -3.32 11.29875 -4 12 C-4.99 11.67 -5.98 11.34 -7 11 C-7.35475877 7.18634321 -7.2619932 5.41557542 -5.1875 2.125 C-3 0 -3 0 0 0 Z " fill="#E7FBEB" transform="translate(143,174)"/>
<path d="M0 0 C0.495 0.165 0.99 0.33 1.5 0.5 C5.03444089 1.20688818 8.39690701 1.06005155 12 1 C12 1.66 12 2.32 12 3 C13.65 3.33 15.3 3.66 17 4 C17 4.99 17 5.98 17 7 C10.26222686 7.60158689 6.2585915 6.32751919 1 2 C0.67 1.34 0.34 0.68 0 0 Z " fill="#578B5F" transform="translate(68,135)"/>
<path d="M0 0 C2.875 -0.1875 2.875 -0.1875 6 0 C6.66 0.99 7.32 1.98 8 3 C9.96361864 3.57748803 9.96361864 3.57748803 12.125 3.6875 C13.40375 3.790625 14.6825 3.89375 16 4 C16 5.32 16 6.64 16 8 C13.13639539 9.21152503 12.07471705 9.02923711 9.125 7.875 C5.71200958 5.82720575 2.94850307 3.66769326 0 1 C0 0.67 0 0.34 0 0 Z " fill="#5A915F" transform="translate(80,103)"/>
<path d="M0 0 C6.20825611 2.6147083 9.93576392 9.21199852 13 15 C13 15.66 13 16.32 13 17 C12.01 17.33 11.02 17.66 10 18 C9.56300781 17.03900391 9.56300781 17.03900391 9.1171875 16.05859375 C6.35675882 10.23391562 3.40141835 5.70849405 -1 1 C-0.67 0.67 -0.34 0.34 0 0 Z " fill="#D0EED4" transform="translate(121,96)"/>
<path d="M0 0 C0.33 0 0.66 0 1 0 C0.98839844 1.09699219 0.97679688 2.19398437 0.96484375 3.32421875 C0.95546036 4.77864412 0.94636075 6.23307135 0.9375 7.6875 C0.92912109 8.40873047 0.92074219 9.12996094 0.91210938 9.87304688 C0.89456368 13.71555382 1.06475779 17.26639526 2 21 C0.68 21.33 -0.64 21.66 -2 22 C-2 21.34 -2 20.68 -2 20 C-2.99 19.67 -3.98 19.34 -5 19 C-5 17.35 -5 15.7 -5 14 C-4.34 15.32 -3.68 16.64 -3 18 C-2.95101562 17.11957031 -2.90203125 16.23914063 -2.8515625 15.33203125 C-2.77679688 14.17058594 -2.70203125 13.00914063 -2.625 11.8125 C-2.55539063 10.66394531 -2.48578125 9.51539063 -2.4140625 8.33203125 C-2.02490426 5.20040883 -1.3190149 2.84714191 0 0 Z " fill="#668A6D" transform="translate(117,48)"/>
<path d="M0 0 C0.66 0.33 1.32 0.66 2 1 C2 3.64 2 6.28 2 9 C2.66 9 3.32 9 4 9 C3.44271087 12.34373475 2.64826111 15.03312999 1 18 C-1 16 -1 16 -1.23046875 13.3203125 C-1.21628906 12.26585937 -1.20210938 11.21140625 -1.1875 10.125 C-1.18105469 9.07570312 -1.17460938 8.02640625 -1.16796875 6.9453125 C-1.02619538 4.45933296 -0.7160399 2.37152414 0 0 Z " fill="#578B64" transform="translate(99,167)"/>
<path d="M0 0 C0.66 0.33 1.32 0.66 2 1 C1.34 1.66 0.68 2.32 0 3 C3.1398133 8.87008573 7.08147057 11.14190673 13 14 C13 14.33 13 14.66 13 15 C8.45194365 15.17835515 5.1205746 14.99785435 1 13 C1 11.35 1 9.7 1 8 C0.01 7.67 -0.98 7.34 -2 7 C-2 5.02 -2 3.04 -2 1 C-1.34 0.67 -0.68 0.34 0 0 Z " fill="#E7F9EB" transform="translate(66,122)"/>
<path d="M0 0 C2.475 0.495 2.475 0.495 5 1 C5.33 1.99 5.66 2.98 6 4 C8.01508358 4.73323796 8.01508358 4.73323796 10 5 C10.33 6.32 10.66 7.64 11 9 C11.66 9 12.32 9 13 9 C13 6.36 13 3.72 13 1 C13.33 1 13.66 1 14 1 C14 4.63 14 8.26 14 12 C9.29039356 10.11615743 7.57702131 8.93944325 4.1875 5.4375 C3.39730469 4.63183594 2.60710937 3.82617188 1.79296875 2.99609375 C0 1 0 1 0 0 Z " fill="#DFF3E0" transform="translate(98,64)"/>
<path d="M0 0 C0.99 0 1.98 0 3 0 C3.33 2.31 3.66 4.62 4 7 C7.36591866 5.55746343 9.51047079 3.66735273 12 1 C9.85882353 7.09411765 9.85882353 7.09411765 7 9 C4.4375 8.875 4.4375 8.875 2 8 C1.34 7.01 0.68 6.02 0 5 C-1.98 5.99 -1.98 5.99 -4 7 C-2.68 4.69 -1.36 2.38 0 0 Z " fill="#67876C" transform="translate(143,179)"/>
<path d="M0 0 C2.475 0.99 2.475 0.99 5 2 C5 1.34 5 0.68 5 0 C7.4375 0.8125 7.4375 0.8125 10 2 C10.33 2.99 10.66 3.98 11 5 C13.00016466 6.20882096 13.00016466 6.20882096 15 7 C14.34 7.66 13.68 8.32 13 9 C8.38 6.69 3.76 4.38 -1 2 C-0.67 1.34 -0.34 0.68 0 0 Z " fill="#5D9167" transform="translate(104,84)"/>
<path d="M0 0 C0.66 0.33 1.32 0.66 2 1 C1.67 1.99 1.34 2.98 1 4 C0.34 4 -0.32 4 -1 4 C-0.67 5.32 -0.34 6.64 0 8 C-4.29 8 -8.58 8 -13 8 C-10.77547067 5.77547067 -8.76350755 4.7996763 -5.9375 3.4375 C-2.74843719 2.04103788 -2.74843719 2.04103788 0 0 Z " fill="#688F6F" transform="translate(120,131)"/>
<path d="M0 0 C0.33 0 0.66 0 1 0 C1.33 3.63 1.66 7.26 2 11 C1.67 11 1.34 11 1 11 C0.95101562 11.85464844 0.90203125 12.70929687 0.8515625 13.58984375 C0.77679688 14.69457031 0.70203125 15.79929687 0.625 16.9375 C0.52058594 18.59072266 0.52058594 18.59072266 0.4140625 20.27734375 C0.27742188 21.17582031 0.14078125 22.07429688 0 23 C-0.66 23.33 -1.32 23.66 -2 24 C-2.0544207 21.31222198 -2.09387266 18.62556788 -2.125 15.9375 C-2.14175781 15.18533203 -2.15851563 14.43316406 -2.17578125 13.65820312 C-2.21865121 8.70672291 -1.58399375 4.69585549 0 0 Z " fill="#62906B" transform="translate(77,27)"/>
<path d="M0 0 C2.97 0.495 2.97 0.495 6 1 C7.125 7.75 7.125 7.75 6 10 C5.34 9.67 4.68 9.34 4 9 C4 7.68 4 6.36 4 5 C1.66928121 4.58129447 1.66928121 4.58129447 -1 5 C-3.33630748 7.39859044 -3.33630748 7.39859044 -5 10 C-5 9.01 -5 8.02 -5 7 C-5.66 6.67 -6.32 6.34 -7 6 C-6.030625 5.38125 -5.06125 4.7625 -4.0625 4.125 C-0.97164638 2.34321154 -0.97164638 2.34321154 0 0 Z " fill="#E8F7EA" transform="translate(175,168)"/>
<path d="M0 0 C1.67542976 0.28604898 3.34385343 0.61781233 5 1 C5.25 8.625 5.25 8.625 3 12 C0.71046511 9.71046511 0.47586642 8.54484795 -0.1875 5.4375 C-0.36667969 4.63183594 -0.54585938 3.82617188 -0.73046875 2.99609375 C-0.81941406 2.33738281 -0.90835938 1.67867187 -1 1 C-0.67 0.67 -0.34 0.34 0 0 Z " fill="#85A88B" transform="translate(108,173)"/>
<path d="M0 0 C0.7734375 0.61875 0.7734375 0.61875 1.5625 1.25 C3.96806258 2.97707057 6.46763379 4.37634357 9.05078125 5.81640625 C12.55721427 7.94556297 15.76743992 10.48112201 19 13 C18.67 13.99 18.34 14.98 18 16 C17.55011719 15.64808594 17.10023438 15.29617187 16.63671875 14.93359375 C10.97862698 10.59080988 5.05588508 6.76266389 -1 3 C-0.67 2.01 -0.34 1.02 0 0 Z " fill="#CBF1CF" transform="translate(112,74)"/>
<path d="M0 0 C0.66 0.33 1.32 0.66 2 1 C1.154375 1.9075 0.30875 2.815 -0.5625 3.75 C-4.81948176 8.67753258 -7.85179073 14.32763478 -11 20 C-12 18 -12 18 -11.3984375 15.828125 C-8.72461061 9.09253053 -6.17695496 4.11796997 0 0 Z " fill="#7A947F" transform="translate(121,114)"/>
<path d="M0 0 C0.99 0.66 1.98 1.32 3 2 C1.63312778 5.98671063 -0.15195093 8.88494633 -3 12 C-3.66 12 -4.32 12 -5 12 C-4.67 9.36 -4.34 6.72 -4 4 C-3.01 3.67 -2.02 3.34 -1 3 C-0.67 2.01 -0.34 1.02 0 0 Z " fill="#DAF2E0" transform="translate(117,173)"/>
<path d="M0 0 C-0.33 0.99 -0.66 1.98 -1 3 C-7.03706683 5.69741284 -11.74467198 4.6362025 -18 3 C-18 2.67 -18 2.34 -18 2 C-16.75283203 1.80083984 -16.75283203 1.80083984 -15.48046875 1.59765625 C-14.39378906 1.42105469 -13.30710937 1.24445313 -12.1875 1.0625 C-11.10855469 0.88847656 -10.02960938 0.71445313 -8.91796875 0.53515625 C-2.12953368 -0.70984456 -2.12953368 -0.70984456 0 0 Z " fill="#669770" transform="translate(102,129)"/>
<path d="M0 0 C0.33 0.66 0.66 1.32 1 2 C0.07421875 3.9453125 0.07421875 3.9453125 -1.3125 6.125 C-1.98732422 7.21167969 -1.98732422 7.21167969 -2.67578125 8.3203125 C-3.11277344 8.87460938 -3.54976562 9.42890625 -4 10 C-4.66 10 -5.32 10 -6 10 C-6.33 7.69 -6.66 5.38 -7 3 C-4.38058783 1.25372522 -2.96175123 0.61277612 0 0 Z " fill="#EEF9F1" transform="translate(155,175)"/>
<path d="M0 0 C1.79068573 2.6860286 2.66055791 4.6626589 3.625 7.6875 C3.88539062 8.49574219 4.14578125 9.30398437 4.4140625 10.13671875 C4.60742188 10.75160156 4.80078125 11.36648437 5 12 C4.01 12 3.02 12 2 12 C2 12.66 2 13.32 2 14 C1.34 14 0.68 14 0 14 C-0.99293628 11.02119115 -1.13406411 8.98398802 -1.125 5.875 C-1.12757812 4.98554687 -1.13015625 4.09609375 -1.1328125 3.1796875 C-1 1 -1 1 0 0 Z " fill="#6B8E6E" transform="translate(72,58)"/>
<path d="M0 0 C0.37125 0.66 0.7425 1.32 1.125 2 C2.90894778 4.35303045 2.90894778 4.35303045 6.1875 4.25 C7.115625 4.1675 8.04375 4.085 9 4 C6.65361044 6.71687212 4.42823404 7.94515876 1 9 C-1 8 -1 8 -2 6 C-2.66 5.34 -3.32 4.68 -4 4 C-2.68 2.68 -1.36 1.36 0 0 Z " fill="#E3F5E7" transform="translate(143,183)"/>
<path d="M0 0 C-0.75 6.75 -0.75 6.75 -3 9 C-4.32 9 -5.64 9 -7 9 C-6.45276317 5.62537285 -5.9451 3.91765 -4 1 C-1 0 -1 0 0 0 Z " fill="#8EB495" transform="translate(94,172)"/>
<path d="M0 0 C0.8125 1.625 0.8125 1.625 1 4 C-0.46818136 6.24609835 -2.15852858 8.02378677 -4 10 C-4.66 9.67 -5.32 9.34 -6 9 C-5.125 3.25 -5.125 3.25 -4 1 C-1.9375 0.375 -1.9375 0.375 0 0 Z " fill="#8FB496" transform="translate(69,173)"/>
<path d="M0 0 C0.66 0 1.32 0 2 0 C1.50341703 5.66104589 0.45489316 9.87674471 -2 15 C-2.33 15 -2.66 15 -3 15 C-3.20749784 9.91630285 -2.63931134 5.82150395 -1 1 C-0.67 0.67 -0.34 0.34 0 0 Z " fill="#DCF7DC" transform="translate(104,161)"/>
<path d="M0 0 C0.99 0.33 1.98 0.66 3 1 C2.34 1 1.68 1 1 1 C1 1.66 1 2.32 1 3 C1.66 3 2.32 3 3 3 C3 3.66 3 4.32 3 5 C2.01 5 1.02 5 0 5 C-0.33 5.99 -0.66 6.98 -1 8 C-1.66 7.67 -2.32 7.34 -3 7 C-4.53668865 6.77532169 -6.07968054 6.59203195 -7.625 6.4375 C-8.44226563 6.35371094 -9.25953125 6.26992187 -10.1015625 6.18359375 C-10.72804688 6.12300781 -11.35453125 6.06242187 -12 6 C-12 5.67 -12 5.34 -12 5 C-10.7625 4.731875 -9.525 4.46375 -8.25 4.1875 C-4.82955798 3.35501147 -2.78392173 2.16527245 0 0 Z " fill="#5B9865" transform="translate(99,94)"/>
<path d="M0 0 C0.33 0.66 0.66 1.32 1 2 C1.66 2 2.32 2 3 2 C3.33 3.32 3.66 4.64 4 6 C5.65 6.33 7.3 6.66 9 7 C9.33 8.65 9.66 10.3 10 12 C7 12 7 12 5.24609375 10.609375 C4.64925781 9.99578125 4.05242187 9.3821875 3.4375 8.75 C2.83808594 8.14671875 2.23867187 7.5434375 1.62109375 6.921875 C0.02427887 5.02878362 -0.99738545 3.25463571 -2 1 C-1.34 0.67 -0.68 0.34 0 0 Z " fill="#5C8B64" transform="translate(84,65)"/>
<path d="M0 0 C0.66 0.33 1.32 0.66 2 1 C0 5 -2 9 -4 13 C-4.66 13 -5.32 13 -6 13 C-6.6796875 11.26171875 -6.6796875 11.26171875 -7 9 C-5.8203125 6.89453125 -5.8203125 6.89453125 -4.125 4.8125 C-3.57070312 4.11769531 -3.01640625 3.42289063 -2.4453125 2.70703125 C-1.659571 1.77900682 -0.8598311 0.8598311 0 0 Z " fill="#6E8F76" transform="translate(132,29)"/>
<path d="M0 0 C2.875 -0.125 2.875 -0.125 6 0 C6.66 0.66 7.32 1.32 8 2 C5 4 5 4 2 4 C2 4.66 2 5.32 2 6 C0.02 6.33 -1.96 6.66 -4 7 C-3 4 -3 4 -1 2 C-0.67 1.34 -0.34 0.68 0 0 Z " fill="#508C60" transform="translate(122,131)"/>
<path d="M0 0 C0.33 0.99 0.66 1.98 1 3 C2.65 2.67 4.3 2.34 6 2 C7.37432457 5.81756824 6.67975039 9.07255329 6 13 C8.33075929 12.04134491 8.33075929 12.04134491 10 9 C9.67 10.65 9.34 12.3 9 14 C7.35 14.33 5.7 14.66 4 15 C4.33 11.37 4.66 7.74 5 4 C3.35 4 1.7 4 0 4 C0 2.68 0 1.36 0 0 Z " fill="#D7F4DD" transform="translate(160,170)"/>
<path d="M0 0 C0.99 0 1.98 0 3 0 C3 3.63 3 7.26 3 11 C2.34 11 1.68 11 1 11 C0.34 9.68 -0.32 8.36 -1 7 C-1.99 7.495 -1.99 7.495 -3 8 C-3.33 7.01 -3.66 6.02 -4 5 C-2.25 2.3125 -2.25 2.3125 0 0 Z " fill="#E2F2E0" transform="translate(159,176)"/>
<path d="M0 0 C1.32 0.33 2.64 0.66 4 1 C3.01 1.495 3.01 1.495 2 2 C1.09972386 3.9073158 0.27757865 5.85195871 -0.5 7.8125 C-1.88623585 11.28231596 -3.26758381 14.68755608 -5 18 C-4.58997722 5.33029613 -4.58997722 5.33029613 0 0 Z " fill="#E8F9EB" transform="translate(80,16)"/>
<path d="M0 0 C0.33 0 0.66 0 1 0 C1 4.95 1 9.9 1 15 C0.34 13.68 -0.32 12.36 -1 11 C-1.99 10.34 -2.98 9.68 -4 9 C-2.80100302 5.9168649 -1.52299523 2.93720508 0 0 Z " fill="#7A9D7F" transform="translate(82,17)"/>
<path d="M0 0 C2.62901288 1.52206009 4.84365964 2.84365964 7 5 C6.625 7.125 6.625 7.125 6 9 C5.01 9 4.02 9 3 9 C0 2.25 0 2.25 0 0 Z " fill="#4E8756" transform="translate(72,82)"/>
<path d="M0 0 C1.32 0 2.64 0 4 0 C4.12375 0.9075 4.2475 1.815 4.375 2.75 C4.80152949 5.86691643 4.80152949 5.86691643 6.03125 7.875 C7.21993173 10.4824309 7.20002927 12.39888781 7.125 15.25 C7.10695312 16.14203125 7.08890625 17.0340625 7.0703125 17.953125 C7.03550781 18.96632813 7.03550781 18.96632813 7 20 C6.67 20 6.34 20 6 20 C5.85304687 18.93072266 5.85304687 18.93072266 5.703125 17.83984375 C4.73521639 11.64022223 3.36699459 7.2749582 0 2 C0 1.34 0 0.68 0 0 Z " fill="#D7EFD9" transform="translate(130,64)"/>
<path d="M0 0 C0.70125 0.495 1.4025 0.99 2.125 1.5 C5.45800237 3.23895776 7.29065683 3.47353317 11 3 C13.34261608 1.62073227 13.34261608 1.62073227 15 0 C13.25 4.875 13.25 4.875 11 6 C4.46666667 6.23333333 4.46666667 6.23333333 2 5 C2 4.34 2 3.68 2 3 C1.34 3 0.68 3 0 3 C0 2.01 0 1.02 0 0 Z " fill="#678870" transform="translate(170,182)"/>
<path d="M0 0 C0.66 0 1.32 0 2 0 C2 0.99 2 1.98 2 3 C2.99 2.67 3.98 2.34 5 2 C4.34 5.3 3.68 8.6 3 12 C2.67 11.01 2.34 10.02 2 9 C1.34 9 0.68 9 0 9 C0 6.03 0 3.06 0 0 Z " fill="#538968" transform="translate(74,172)"/>
<path d="M0 0 C0.66 0.33 1.32 0.66 2 1 C2 4 2 4 1 6 C-2.06909445 6.66719444 -4.85786017 7 -8 7 C-3.76744186 1.25581395 -3.76744186 1.25581395 0 0 Z " fill="#E7F7EB" transform="translate(158,96)"/>
<path d="M0 0 C2 0 2 0 3.625 1.375 C5 3 5 3 5 5 C5.763125 4.79375 6.52625 4.5875 7.3125 4.375 C10 4 10 4 13 6 C4.96498906 7.61050328 4.96498906 7.61050328 0.9375 5.0625 C0.298125 4.381875 -0.34125 3.70125 -1 3 C-0.67 2.01 -0.34 1.02 0 0 Z " fill="#6C9375" transform="translate(74,181)"/>
<path d="M0 0 C0.66 0 1.32 0 2 0 C3.25541557 3.76624671 2.37061958 5.37188934 1 9 C-0.98 9.33 -2.96 9.66 -5 10 C-4.67 9.01 -4.34 8.02 -4 7 C-3.01 7 -2.02 7 -1 7 C-1.020625 6.030625 -1.04125 5.06125 -1.0625 4.0625 C-1 1 -1 1 0 0 Z " fill="#F1F9F3" transform="translate(61,157)"/>
<path d="M0 0 C0.33 0 0.66 0 1 0 C1.3183515 4.0589816 1.39717586 6.3474968 -0.75 9.875 C-3 12 -3 12 -7 13 C-3.535 6.565 -3.535 6.565 0 0 Z " fill="#E3F5E6" transform="translate(143,117)"/>
<path d="M0 0 C2.15377564 2.62198774 3.40072174 4.64404172 4 8 C3.01 8.495 3.01 8.495 2 9 C1.01 10.485 1.01 10.485 0 12 C-1.57312496 8.32937509 -2.14440048 6.55697326 -1.125 2.625 C-0.75375 1.75875 -0.3825 0.8925 0 0 Z " fill="#DFF4E1" transform="translate(76,56)"/>
<path d="M0 0 C0.99 0 1.98 0 3 0 C3 0.66 3 1.32 3 2 C4.98 1.34 6.96 0.68 9 0 C9 0.66 9 1.32 9 2 C9.66 2.33 10.32 2.66 11 3 C7.49223216 4.60355101 4.85645121 5.22036864 1 5 C0.67 3.35 0.34 1.7 0 0 Z " fill="#78967C" transform="translate(161,183)"/>
<path d="M0 0 C0.78375 0.04125 1.5675 0.0825 2.375 0.125 C2.045 0.785 1.715 1.445 1.375 2.125 C0.715 2.125 0.055 2.125 -0.625 2.125 C-1.615 4.435 -2.605 6.745 -3.625 9.125 C-2.635 9.455 -1.645 9.785 -0.625 10.125 C-2.275 9.795 -3.925 9.465 -5.625 9.125 C-4.6356383 0.22074468 -4.6356383 0.22074468 0 0 Z " fill="#608768" transform="translate(90.625,171.875)"/>
<path d="M0 0 C0.78375 0.04125 1.5675 0.0825 2.375 0.125 C2.705 1.445 3.035 2.765 3.375 4.125 C2.715 4.125 2.055 4.125 1.375 4.125 C1.375 3.465 1.375 2.805 1.375 2.125 C0.385 2.455 -0.605 2.785 -1.625 3.125 C-2.85020264 6.13347418 -2.85020264 6.13347418 -3.625 9.125 C-4.285 8.465 -4.945 7.805 -5.625 7.125 C-5.20813063 2.95630627 -4.65455455 0.22164545 0 0 Z " fill="#5E876A" transform="translate(176.625,171.875)"/>
<path d="M0 0 C1.2684375 0.433125 1.2684375 0.433125 2.5625 0.875 C6.70109286 2.22944857 10.6794735 2.63515554 15 3 C15 3.33 15 3.66 15 4 C9.06 4.33 3.12 4.66 -3 5 C-2.67 3.68 -2.34 2.36 -2 1 C-1.34 0.67 -0.68 0.34 0 0 Z " fill="#DBF4DE" transform="translate(81,97)"/>
<path d="M0 0 C0.66 0.33 1.32 0.66 2 1 C1.67 3.97 1.34 6.94 1 10 C-0.32 10 -1.64 10 -3 10 C-2.67 7.36 -2.34 4.72 -2 2 C-1.34 2 -0.68 2 0 2 C0 1.34 0 0.68 0 0 Z " fill="#E9F9EC" transform="translate(39,166)"/>
<path d="M0 0 C-4.76971162 3.93501209 -4.76971162 3.93501209 -8.14453125 4.11328125 C-10.3125 3.875 -10.3125 3.875 -14 3 C-14.33 2.34 -14.66 1.68 -15 1 C-14.06027344 0.90912109 -14.06027344 0.90912109 -13.1015625 0.81640625 C-11.87566406 0.69072266 -11.87566406 0.69072266 -10.625 0.5625 C-9.81289062 0.48128906 -9.00078125 0.40007812 -8.1640625 0.31640625 C-1.96601942 -0.58980583 -1.96601942 -0.58980583 0 0 Z " fill="#E2F8E7" transform="translate(126,138)"/>
<path d="M0 0 C1.44466413 2.88932827 0.53811224 5.08017347 -0.25390625 8.08984375 C-1.24892556 10.63730157 -2.6146605 11.72781894 -5 13 C-3.25740319 3.40546697 -3.25740319 3.40546697 0 0 Z " fill="#E2F7E5" transform="translate(149,103)"/>
<path d="M0 0 C0.33 0 0.66 0 1 0 C1 4.29 1 8.58 1 13 C-2.81818182 9.18181818 -2.81818182 9.18181818 -3 6 C-1.5625 2.75 -1.5625 2.75 0 0 Z " fill="#66916E" transform="translate(133,98)"/>
<path d="M0 0 C1.78821774 2.68232661 3.20142604 5.30288961 4.625 8.1875 C5.07101563 9.08855469 5.51703125 9.98960938 5.9765625 10.91796875 C6.31429687 11.60503906 6.65203125 12.29210937 7 13 C4.50638429 11.79618552 2.31856917 10.54571278 0 9 C-0.29296875 6.8359375 -0.29296875 6.8359375 -0.1875 4.375 C-0.16042969 3.55773437 -0.13335937 2.74046875 -0.10546875 1.8984375 C-0.05326172 0.95871094 -0.05326172 0.95871094 0 0 Z " fill="#CFEFD6" transform="translate(72,73)"/>
<path d="M0 0 C0.33 0 0.66 0 1 0 C1 1.65 1 3.3 1 5 C-1.22890995 6.11445498 -2.53055106 6.16480286 -5 6.1875 C-6.051875 6.20876953 -6.051875 6.20876953 -7.125 6.23046875 C-9 6 -9 6 -11 4 C-8.03 4 -5.06 4 -2 4 C-1.34 2.68 -0.68 1.36 0 0 Z " fill="#E4F7E5" transform="translate(59,180)"/>
<path d="M0 0 C0.99 0 1.98 0 3 0 C3 3.3 3 6.6 3 10 C2.67 8.68 2.34 7.36 2 6 C1.34 5.67 0.68 5.34 0 5 C-0.33 5.33 -0.66 5.66 -1 6 C-1.66 6 -2.32 6 -3 6 C-1.125 1.125 -1.125 1.125 0 0 Z " fill="#CEEAD2" transform="translate(122,176)"/>
<path d="M0 0 C0.66 0.99 1.32 1.98 2 3 C2.66 2.67 3.32 2.34 4 2 C3.38461538 8.52307692 3.38461538 8.52307692 1.4375 10.9375 C0.963125 11.288125 0.48875 11.63875 0 12 C-1.28571429 3.42857143 -1.28571429 3.42857143 0 0 Z " fill="#4A8D58" transform="translate(108,104)"/>
<path d="M0 0 C2.64752004 2.57784846 4.94432065 4.91648098 7 8 C6.67 8.66 6.34 9.32 6 10 C5.34 10 4.68 10 4 10 C4 9.34 4 8.68 4 8 C3.34 8 2.68 8 2 8 C2 7.34 2 6.68 2 6 C1.34 6 0.68 6 0 6 C0 4.02 0 2.04 0 0 Z " fill="#61936B" transform="translate(79,72)"/>
<path d="M0 0 C0.99 0.33 1.98 0.66 3 1 C2.360625 1.721875 1.72125 2.44375 1.0625 3.1875 C-0.98673535 5.98191184 -1.61332946 7.61663274 -2 11 C-2.99 10.34 -3.98 9.68 -5 9 C-3.90931332 5.22454612 -3.0916909 2.52956528 0 0 Z " fill="#719075" transform="translate(104,158)"/>
<path d="M0 0 C2.31 0.66 4.62 1.32 7 2 C7 3.32 7 4.64 7 6 C6.34 6 5.68 6 5 6 C5 5.34 5 4.68 5 4 C3.02 4 1.04 4 -1 4 C-0.67 2.68 -0.34 1.36 0 0 Z " fill="#61926D" transform="translate(113,95)"/>
<path d="M0 0 C0.53109375 0.16371094 1.0621875 0.32742187 1.609375 0.49609375 C4.53876764 1.11356377 7.25822936 1.09501925 10.25 1.0625 C11.86648437 1.04896484 11.86648437 1.04896484 13.515625 1.03515625 C14.74539062 1.01775391 14.74539062 1.01775391 16 1 C16.33 1.66 16.66 2.32 17 3 C12.38 3 7.76 3 3 3 C2.67 3.66 2.34 4.32 2 5 C1.01 4.34 0.02 3.68 -1 3 C-0.67 2.01 -0.34 1.02 0 0 Z " fill="#CDE6D3" transform="translate(135,86)"/>
<path d="M0 0 C1.65 0 3.3 0 5 0 C5.33 0.99 5.66 1.98 6 3 C4.5625 5.1875 4.5625 5.1875 3 7 C2.01 6.67 1.02 6.34 0 6 C0 4.02 0 2.04 0 0 Z " fill="#D9EDD5" transform="translate(136,179)"/>
<path d="M0 0 C1.32 0 2.64 0 4 0 C4 1.98 4 3.96 4 6 C3.34 6 2.68 6 2 6 C1.67 5.67 1.34 5.34 1 5 C0.01 5.33 -0.98 5.66 -2 6 C-1.125 1.125 -1.125 1.125 0 0 Z " fill="#5C8565" transform="translate(156,168)"/>
<path d="M0 0 C-0.8125 2.9375 -0.8125 2.9375 -2 6 C-2.99 6.33 -3.98 6.66 -5 7 C-4.67 5.68 -4.34 4.36 -4 3 C-6.31 2.67 -8.62 2.34 -11 2 C-11 1.67 -11 1.34 -11 1 C-3.375 0 -3.375 0 0 0 Z " fill="#CAE7D2" transform="translate(107,111)"/>
<path d="M0 0 C0.33 1.32 0.66 2.64 1 4 C1.66 4 2.32 4 3 4 C1.70700306 6.88437779 0.34058637 8.87219421 -2 11 C-3 9 -3 9 -2.44140625 6.8359375 C-2.15136719 6.02382812 -1.86132812 5.21171875 -1.5625 4.375 C-1.27503906 3.55773437 -0.98757812 2.74046875 -0.69140625 1.8984375 C-0.46324219 1.27195313 -0.23507813 0.64546875 0 0 Z " fill="#78A182" transform="translate(157,170)"/>
<path d="M0 0 C2.23915424 0.73602403 2.23915424 0.73602403 5.0625 -0.5 C5.3925 0.49 5.7225 1.48 6.0625 2.5 C2.38839215 3.67571451 -1.10679183 3.57366746 -4.9375 3.5 C-4.6075 2.51 -4.2775 1.52 -3.9375 0.5 C-1.9375 -0.5 -1.9375 -0.5 0 0 Z " fill="#E1F0E2" transform="translate(141.9375,169.5)"/>
<path d="M0 0 C0.99 0.33 1.98 0.66 3 1 C5.14255793 0.61067144 5.14255793 0.61067144 7 0 C6.67 0.99 6.34 1.98 6 3 C1.95858806 3.63394697 -1.9065307 4.12404452 -6 4 C-3 2 -3 2 0 2 C0 1.34 0 0.68 0 0 Z " fill="#DCECDD" transform="translate(89,147)"/>
<path d="M0 0 C0.495 0.165 0.99 0.33 1.5 0.5 C5.03444089 1.20688818 8.39690701 1.06005155 12 1 C12 1.66 12 2.32 12 3 C9 5 9 5 7 6 C1.125 2.25 1.125 2.25 0 0 Z " fill="#6F9276" transform="translate(68,135)"/>
<path d="M0 0 C0 0.66 0 1.32 0 2 C0.66 2 1.32 2 2 2 C1.67 2.99 1.34 3.98 1 5 C-2 6 -2 6 -4.1875 5.0625 C-4.785625 4.711875 -5.38375 4.36125 -6 4 C-2.25 0 -2.25 0 0 0 Z " fill="#EAF1EB" transform="translate(126,113)"/>
<path d="M0 0 C1.98 0 3.96 0 6 0 C6.99 2.31 7.98 4.62 9 7 C5.18315774 5.44499019 2.80804268 2.96404505 0 0 Z " fill="#689B70" transform="translate(80,103)"/>
<path d="M0 0 C2.97 0.495 2.97 0.495 6 1 C6.33 1.99 6.66 2.98 7 4 C4.69 4 2.38 4 0 4 C0 2.68 0 1.36 0 0 Z " fill="#F2FCED" transform="translate(100,86)"/>
<path d="M0 0 C4.875 4.5 4.875 4.5 6 9 C3.03 7.02 0.06 5.04 -3 3 C-2.01 2.01 -1.02 1.02 0 0 Z " fill="#628A6B" transform="translate(124,78)"/>
<path d="M0 0 C2.475 0.495 2.475 0.495 5 1 C5.33 1.99 5.66 2.98 6 4 C8.00016466 5.20882096 8.00016466 5.20882096 10 6 C8.68 6.33 7.36 6.66 6 7 C4.02 4.69 2.04 2.38 0 0 Z " fill="#E9FBED" transform="translate(98,64)"/>
<path d="M0 0 C0.66 0 1.32 0 2 0 C2 3.63 2 7.26 2 11 C1.34 10.67 0.68 10.34 0 10 C-0.44921875 7.96875 -0.44921875 7.96875 -0.6875 5.5 C-0.77386719 4.6853125 -0.86023438 3.870625 -0.94921875 3.03125 C-0.96597656 2.3609375 -0.98273438 1.690625 -1 1 C-0.67 0.67 -0.34 0.34 0 0 Z " fill="#D0EBD6" transform="translate(113,56)"/>
<path d="M0 0 C0.66 0.33 1.32 0.66 2 1 C2.4140625 3.06640625 2.4140625 3.06640625 2.625 5.5625 C2.69976562 6.38878906 2.77453125 7.21507812 2.8515625 8.06640625 C2.92503906 9.02353516 2.92503906 9.02353516 3 10 C1.68 10 0.36 10 -1 10 C-0.67 6.7 -0.34 3.4 0 0 Z " fill="#61896E" transform="translate(99,167)"/>
<path d="M0 0 C0.1875 2.875 0.1875 2.875 0 6 C-0.99 6.66 -1.98 7.32 -3 8 C-3.66 6.35 -4.32 4.7 -5 3 C-1.125 0 -1.125 0 0 0 Z " fill="#F0F9F1" transform="translate(117,170)"/>
<path d="M0 0 C1.2065625 0.0309375 1.2065625 0.0309375 2.4375 0.0625 C2.4375 0.7225 2.4375 1.3825 2.4375 2.0625 C1.7775 2.0625 1.1175 2.0625 0.4375 2.0625 C0.4375 3.0525 0.4375 4.0425 0.4375 5.0625 C-1.2125 5.0625 -2.8625 5.0625 -4.5625 5.0625 C-3.43829114 0.08386076 -3.43829114 0.08386076 0 0 Z " fill="#84A188" transform="translate(121.5625,167.9375)"/>
<path d="M0 0 C0.91007812 0.00902344 1.82015625 0.01804688 2.7578125 0.02734375 C3.45648438 0.03894531 4.15515625 0.05054688 4.875 0.0625 C5.205 0.7225 5.535 1.3825 5.875 2.0625 C4.67875 2.000625 3.4825 1.93875 2.25 1.875 C-1.85997595 1.85306063 -4.5728261 2.93119566 -8.125 5.0625 C-7.75 3.125 -7.75 3.125 -7.125 1.0625 C-4.60024538 -0.19987731 -2.81299534 -0.03606404 0 0 Z " fill="#E1F2E6" transform="translate(52.125,154.9375)"/>
<path d="M0 0 C-0.33 1.98 -0.66 3.96 -1 6 C-3.31 5.67 -5.62 5.34 -8 5 C-3.16129032 0 -3.16129032 0 0 0 Z " fill="#699173" transform="translate(109,123)"/>
<path d="M0 0 C0.66 0.99 1.32 1.98 2 3 C0.02 5.64 -1.96 8.28 -4 11 C-5.24546405 8.50907189 -4.7767578 7.58919267 -4 5 C-3.34 5 -2.68 5 -2 5 C-1.34 3.35 -0.68 1.7 0 0 Z " fill="#DFF6E3" transform="translate(136,111)"/>
<path d="M0 0 C3.24208567 0.35049575 4.61527704 0.56221181 6.8125 3.0625 C7.204375 3.701875 7.59625 4.34125 8 5 C7.34 6.32 6.68 7.64 6 9 C4.9375 7.125 4.9375 7.125 4 5 C4.33 4.34 4.66 3.68 5 3 C3.35 2.67 1.7 2.34 0 2 C0 1.34 0 0.68 0 0 Z " fill="#478D53" transform="translate(120,87)"/>
<path d="M0 0 C0.2475 0.61875 0.495 1.2375 0.75 1.875 C2.20628639 4.35068687 3.37812506 4.95125002 6 6 C6 6.66 6 7.32 6 8 C3.6875 8.25 3.6875 8.25 1 8 C-0.8125 6 -0.8125 6 -2 4 C-1.34 2.68 -0.68 1.36 0 0 Z " fill="#79A184" transform="translate(101,181)"/>
<path d="M0 0 C0.33 0 0.66 0 1 0 C1.04898438 0.60328125 1.09796875 1.2065625 1.1484375 1.828125 C1.22320312 2.62734375 1.29796875 3.4265625 1.375 4.25 C1.44460937 5.03890625 1.51421875 5.8278125 1.5859375 6.640625 C1.88374809 9.03675519 1.88374809 9.03675519 3.1015625 11.109375 C4 13 4 13 3 16 C-1.01676824 11.14640505 -0.28136159 5.95027665 0 0 Z " fill="#D6F1DD" transform="translate(43,168)"/>
<path d="M0 0 C4.29 0 8.58 0 13 0 C13.33 0.66 13.66 1.32 14 2 C11.36 2.33 8.72 2.66 6 3 C6 2.67 6 2.34 6 2 C3.03 1.505 3.03 1.505 0 1 C0 0.67 0 0.34 0 0 Z " fill="#71A37A" transform="translate(82,101)"/>
<path d="M0 0 C0.99 0.495 0.99 0.495 2 1 C2 1.66 2 2.32 2 3 C3.65 2.34 5.3 1.68 7 1 C6.67 2.65 6.34 4.3 6 6 C4.68 6 3.36 6 2 6 C0 3 0 3 0 0 Z " fill="#DAF3DF" transform="translate(77,180)"/>
<path d="M0 0 C3.37503669 1.1858237 5.64722731 2.27573689 8 5 C7.01 5.99 6.02 6.98 5 8 C4.16382818 6.8562364 3.33113541 5.70992861 2.5 4.5625 C2.0359375 3.92441406 1.571875 3.28632812 1.09375 2.62890625 C0 1 0 1 0 0 Z " fill="#76937D" transform="translate(65,124)"/>
<path d="M0 0 C0.33 0 0.66 0 1 0 C1 1.65 1 3.3 1 5 C1.99 5.33 2.98 5.66 4 6 C-0.625 8.125 -0.625 8.125 -4 7 C-3.67 6.34 -3.34 5.68 -3 5 C-2.34 5.33 -1.68 5.66 -1 6 C-1.66 4.68 -2.32 3.36 -3 2 C-2.01 2 -1.02 2 0 2 C0 1.34 0 0.68 0 0 Z " fill="#4C8D56" transform="translate(85,80)"/>
<path d="M0 0 C2.12038635 2.61514317 4.13091744 5.19637616 6 8 C3 8 3 8 0 7 C0 4.69 0 2.38 0 0 Z " fill="#62946C" transform="translate(90,54)"/>
<path d="M0 0 C1.73662334 3.22515763 2.8905928 6.51329166 4 10 C2.68 9.67 1.36 9.34 0 9 C-1.125 3.375 -1.125 3.375 0 0 Z " fill="#67936E" transform="translate(85,42)"/>
<path d="M0 0 C1.36511719 0.29197266 1.36511719 0.29197266 2.7578125 0.58984375 C3.45648438 0.74582031 4.15515625 0.90179688 4.875 1.0625 C4.875 1.3925 4.875 1.7225 4.875 2.0625 C3.44089632 2.31204005 2.00239928 2.53642642 0.5625 2.75 C-0.23800781 2.87761719 -1.03851563 3.00523437 -1.86328125 3.13671875 C-4.125 3.0625 -4.125 3.0625 -5.91796875 1.58203125 C-6.31628906 1.08058594 -6.71460938 0.57914063 -7.125 0.0625 C-4.4030754 -1.2984623 -2.9418043 -0.64116248 0 0 Z " fill="#E1F5E5" transform="translate(174.125,186.9375)"/>
<path d="M0 0 C2.97 0.495 2.97 0.495 6 1 C6 2.32 6 3.64 6 5 C4.35 5 2.7 5 1 5 C0.67 3.35 0.34 1.7 0 0 Z " fill="#E1F6E2" transform="translate(102,181)"/>
<path d="M0 0 C0.33 0.66 0.66 1.32 1 2 C3.52733235 2.65555119 3.52733235 2.65555119 6 3 C5.67 3.66 5.34 4.32 5 5 C3.02 5 1.04 5 -1 5 C-1 1 -1 1 0 0 Z " fill="#DAF4DC" transform="translate(66,181)"/>
<path d="M0 0 C0.33 0 0.66 0 1 0 C1 2.64 1 5.28 1 8 C1.66 8 2.32 8 3 8 C3 7.34 3 6.68 3 6 C3.66 6 4.32 6 5 6 C4.6875 7.9375 4.6875 7.9375 4 10 C3.01 10.33 2.02 10.66 1 11 C0 10 0 10 -0.09765625 7.71484375 C-0.08605469 6.79832031 -0.07445313 5.88179687 -0.0625 4.9375 C-0.05347656 4.01839844 -0.04445313 3.09929687 -0.03515625 2.15234375 C-0.02355469 1.44207031 -0.01195313 0.73179687 0 0 Z " fill="#D4EDD8" transform="translate(128,175)"/>
<path d="M0 0 C1.3303125 0.37125 1.3303125 0.37125 2.6875 0.75 C2.6875 1.08 2.6875 1.41 2.6875 1.75 C1.759375 1.9975 0.83125 2.245 -0.125 2.5 C-3.47708325 3.81454245 -4.5002803 4.72963384 -6.3125 7.75 C-6.3125 6.76 -6.3125 5.77 -6.3125 4.75 C-6.9725 4.42 -7.6325 4.09 -8.3125 3.75 C-4.12788462 -0.31153846 -4.12788462 -0.31153846 0 0 Z " fill="#E0F2E3" transform="translate(176.3125,170.25)"/>
<path d="M0 0 C0.66 0 1.32 0 2 0 C1.48041715 4.37934119 0.94324258 8.68803391 0 13 C-0.33 13 -0.66 13 -1 13 C-1.02708567 11.39592672 -1.04643483 9.7917215 -1.0625 8.1875 C-1.07410156 7.29417969 -1.08570312 6.40085938 -1.09765625 5.48046875 C-1 3 -1 3 0 0 Z " fill="#CDF2D8" transform="translate(78,162)"/>
<path d="M0 0 C0.66 0 1.32 0 2 0 C1.8125 2.375 1.8125 2.375 1 5 C-1.5625 6.3125 -1.5625 6.3125 -4 7 C-1.125 1.125 -1.125 1.125 0 0 Z " fill="#EAFAF2" transform="translate(114,127)"/>
<path d="M0 0 C0.27585937 0.57234375 0.55171875 1.1446875 0.8359375 1.734375 C1.99467848 3.98964267 3.26875706 6.10856378 4.625 8.25 C5.29402344 9.30960938 5.29402344 9.30960938 5.9765625 10.390625 C6.31429687 10.92171875 6.65203125 11.4528125 7 12 C6.01 12 5.02 12 4 12 C1.3346765 8.8016118 0.0602752 6.81371525 -0.25 2.625 C-0.12625 1.325625 -0.12625 1.325625 0 0 Z " fill="#DBF2E1" transform="translate(72,84)"/>
<path d="M0 0 C-0.66 1.32 -1.32 2.64 -2 4 C-3.98 4 -5.96 4 -8 4 C-7.67 3.01 -7.34 2.02 -7 1 C-4.53721199 -0.231394 -2.7204945 -0.07159196 0 0 Z " fill="#F9F8F8" transform="translate(143,188)"/>
<path d="M0 0 C0.5775 0.45375 1.155 0.9075 1.75 1.375 C3.7800333 2.84113516 5.73539843 3.94857784 8 5 C6.35 5.66 4.7 6.32 3 7 C0 3.375 0 3.375 0 0 Z " fill="#E5F9E9" transform="translate(98,185)"/>
<path d="M0 0 C0.66 0.33 1.32 0.66 2 1 C1 4 1 4 -0.625 5.1875 C-3.80382728 6.27499354 -6.66661533 6.1282071 -10 6 C-9.67 5.34 -9.34 4.68 -9 4 C-6.95756472 3.36614078 -4.90867481 2.98173496 -2.8125 2.5625 C-2.214375 2.376875 -1.61625 2.19125 -1 2 C-0.67 1.34 -0.34 0.68 0 0 Z " fill="#D6E5D6" transform="translate(118,182)"/>
<path d="M0 0 C2.31 1.98 4.62 3.96 7 6 C6.67 6.66 6.34 7.32 6 8 C4.35 7.67 2.7 7.34 1 7 C0.67 4.69 0.34 2.38 0 0 Z " fill="#E5F5E7" transform="translate(41,181)"/>
<path d="M0 0 C0.66 0.99 1.32 1.98 2 3 C3.65 2.67 5.3 2.34 7 2 C6.01 3.485 6.01 3.485 5 5 C1.875 5.1875 1.875 5.1875 -1 5 C-1 1 -1 1 0 0 Z " fill="#DAF3DF" transform="translate(176,181)"/>
<path d="M0 0 C0.99 0.66 1.98 1.32 3 2 C2.01 3.485 2.01 3.485 1 5 C-0.65 4.67 -2.3 4.34 -4 4 C-3.67 3.01 -3.34 2.02 -3 1 C-2.01 0.67 -1.02 0.34 0 0 Z " fill="#5E946C" transform="translate(146,102)"/>
<path d="M0 0 C0.99 0 1.98 0 3 0 C2.67 1.65 2.34 3.3 2 5 C0.68 5 -0.64 5 -2 5 C-1.34 3.35 -0.68 1.7 0 0 Z " fill="#EEFCF4" transform="translate(134,90)"/>
<path d="M0 0 C0.66 0.66 1.32 1.32 2 2 C1.625 4.625 1.625 4.625 1 7 C0.01 7.33 -0.98 7.66 -2 8 C-2.6875 6.25 -2.6875 6.25 -3 4 C-1.5625 1.75 -1.5625 1.75 0 0 Z " fill="#FAFCF4" transform="translate(71,177)"/>
<path d="M0 0 C3.96 1.98 3.96 1.98 8 4 C8 4.33 8 4.66 8 5 C5.69 5 3.38 5 1 5 C0.67 3.35 0.34 1.7 0 0 Z " fill="#CAF2CF" transform="translate(71,132)"/>
<path d="M0 0 C0.33 0.99 0.66 1.98 1 3 C-1.64 4.65 -4.28 6.3 -7 8 C-7.66 7.34 -8.32 6.68 -9 6 C-8.43410156 5.65066406 -7.86820312 5.30132812 -7.28515625 4.94140625 C-6.55167969 4.48636719 -5.81820312 4.03132812 -5.0625 3.5625 C-4.33160156 3.11003906 -3.60070312 2.65757812 -2.84765625 2.19140625 C-1.06100191 1.13135967 -1.06100191 1.13135967 0 0 Z " fill="#E3F7E7" transform="translate(135,130)"/>
<path d="M0 0 C2.97 1.98 2.97 1.98 6 4 C5.01 4.99 4.02 5.98 3 7 C3 6.34 3 5.68 3 5 C2.01 4.67 1.02 4.34 0 4 C0 2.68 0 1.36 0 0 Z " fill="#ECF8E7" transform="translate(80,104)"/>
<path d="M0 0 C0.66 0 1.32 0 2 0 C4 2 4 2 4 5 C3.34 5 2.68 5 2 5 C1.67 5.66 1.34 6.32 1 7 C-0.0625 4.625 -0.0625 4.625 -1 2 C-0.67 1.34 -0.34 0.68 0 0 Z " fill="#479056" transform="translate(127,68)"/>
<path d="M0 0 C1.32 0.33 2.64 0.66 4 1 C1.47043472 4.0916909 -1.22454612 4.90931332 -5 6 C-5 5.34 -5 4.68 -5 4 C-3.35178756 2.96986723 -1.68496298 1.96885372 0 1 C0 0.67 0 0.34 0 0 Z " fill="#67926F" transform="translate(129,131)"/>
<path d="M0 0 C0.66 0 1.32 0 2 0 C2 1.65 2 3.3 2 5 C0.35 5.66 -1.3 6.32 -3 7 C-1.125 2.25 -1.125 2.25 0 0 Z " fill="#65906C" transform="translate(141,107)"/>
<path d="M0 0 C1.5 1.375 1.5 1.375 3 3 C3 3.66 3 4.32 3 5 C0.69 5 -1.62 5 -4 5 C-4.33 4.01 -4.66 3.02 -5 2 C-3.68 2.33 -2.36 2.66 -1 3 C-0.67 2.01 -0.34 1.02 0 0 Z " fill="#5D8F6C" transform="translate(126,104)"/>
<path d="M0 0 C1.65 1.32 3.3 2.64 5 4 C4.67 4.99 4.34 5.98 4 7 C2.0625 6.25 2.0625 6.25 0 5 C-0.8125 2.9375 -0.8125 2.9375 -1 1 C-0.67 0.67 -0.34 0.34 0 0 Z " fill="#56885D" transform="translate(121,99)"/>
<path d="M0 0 C2.97 0.495 2.97 0.495 6 1 C5.01 2.485 5.01 2.485 4 4 C3.67 4.99 3.34 5.98 3 7 C1.68 5.35 0.36 3.7 -1 2 C-0.67 1.34 -0.34 0.68 0 0 Z " fill="#469050" transform="translate(140,92)"/>
<path d="M0 0 C0.33 0.66 0.66 1.32 1 2 C1.99 2.33 2.98 2.66 4 3 C5.1875 5.0625 5.1875 5.0625 6 7 C2.62496331 5.8141763 0.35277269 4.72426311 -2 2 C-1.34 1.34 -0.68 0.68 0 0 Z " fill="#E5F4E5" transform="translate(156,89)"/>
<path d="M0 0 C1.70884005 1.62339805 3.37446717 3.29319053 5 5 C5 5.66 5 6.32 5 7 C1.63279613 5.60667426 0.0140476 4.0210714 -2 1 C-1.34 0.67 -0.68 0.34 0 0 Z " fill="#629563" transform="translate(126,86)"/>
<path d="M0 0 C3.82097239 0.53069061 6.06171403 1.49701566 9 4 C8.67 4.99 8.34 5.98 8 7 C6.66382648 6.02471263 5.3311249 5.04466681 4 4.0625 C3.2575 3.51722656 2.515 2.97195312 1.75 2.41015625 C1.1725 1.94480469 0.595 1.47945313 0 1 C0 0.67 0 0.34 0 0 Z " fill="#AFD6B3" transform="translate(122,83)"/>
<path d="M0 0 C0.33 0 0.66 0 1 0 C1.33 1.98 1.66 3.96 2 6 C2.33 6 2.66 6 3 6 C3 7.65 3 9.3 3 11 C2.01 11 1.02 11 0 11 C0 7.37 0 3.74 0 0 Z " fill="#CFECD3" transform="translate(117,53)"/>
<path d="M0 0 C1.65 1.65 3.3 3.3 5 5 C3.02 5 1.04 5 -1 5 C-1 1 -1 1 0 0 Z " fill="#D5F4D9" transform="translate(90,181)"/>
<path d="M0 0 C0.33 1.32 0.66 2.64 1 4 C1.99 3.67 2.98 3.34 4 3 C4 3.99 4 4.98 4 6 C3.34 6 2.68 6 2 6 C2 6.66 2 7.32 2 8 C1.34 8 0.68 8 0 8 C0 5.36 0 2.72 0 0 Z " fill="#F2FDF1" transform="translate(129,175)"/>
<path d="M0 0 C0.99 0 1.98 0 3 0 C2.67 1.32 2.34 2.64 2 4 C0.68 4.33 -0.64 4.66 -2 5 C-1.34 3.35 -0.68 1.7 0 0 Z " fill="#F8FDF8" transform="translate(81,178)"/>
<path d="M0 0 C1.46726798 3.81489674 0.43336419 6.29011622 -1 10 C-1.33 10 -1.66 10 -2 10 C-2.25 3.375 -2.25 3.375 0 0 Z " fill="#5B8163" transform="translate(42,168)"/>
<path d="M0 0 C-0.33 0.99 -0.66 1.98 -1 3 C-3.31 2.34 -5.62 1.68 -8 1 C-4.93251126 -0.86240388 -3.40254489 -1.2151946 0 0 Z " fill="#688F6E" transform="translate(85,145)"/>
<path d="M0 0 C0.66 0.33 1.32 0.66 2 1 C1.34 2.98 0.68 4.96 0 7 C-0.66 6.67 -1.32 6.34 -2 6 C-2 4.35 -2 2.7 -2 1 C-1.34 0.67 -0.68 0.34 0 0 Z " fill="#DCF3E0" transform="translate(110,125)"/>
<path d="M0 0 C1.98 0.495 1.98 0.495 4 1 C3.34 2.65 2.68 4.3 2 6 C1.01 6 0.02 6 -1 6 C-0.67 4.02 -0.34 2.04 0 0 Z " fill="#F1FDEF" transform="translate(110,120)"/>
<path d="M0 0 C0.99 0 1.98 0 3 0 C3 1.65 3 3.3 3 5 C1.02 5.99 1.02 5.99 -1 7 C-0.67 4.69 -0.34 2.38 0 0 Z " fill="#508B5A" transform="translate(130,97)"/>
<path d="M0 0 C1.32 0 2.64 0 4 0 C4 2.64 4 5.28 4 8 C1.84622436 5.37801226 0.59927826 3.35595828 0 0 Z " fill="#E1F4E1" transform="translate(130,64)"/>
<path d="M0 0 C0.66 0.33 1.32 0.66 2 1 C2 2.98 2 4.96 2 7 C1.01 7 0.02 7 -1 7 C-1.04254356 5.00045254 -1.04080783 2.99958364 -1 1 C-0.67 0.67 -0.34 0.34 0 0 Z " fill="#F2FDF0" transform="translate(74,54)"/>
<path d="M0 0 C-1.32 0.33 -2.64 0.66 -4 1 C-4 1.66 -4 2.32 -4 3 C-6.97 2.67 -9.94 2.34 -13 2 C-13 1.67 -13 1.34 -13 1 C-8.61414671 0.29826347 -4.44209357 -0.10834375 0 0 Z " fill="#D8EAD7" transform="translate(64,187)"/>
<path d="M0 0 C0.66 0 1.32 0 2 0 C2.33 0.99 2.66 1.98 3 3 C2.67 3.66 2.34 4.32 2 5 C1.34 5 0.68 5 0 5 C-0.33 5.66 -0.66 6.32 -1 7 C-1.04254356 5.00045254 -1.04080783 2.99958364 -1 1 C-0.67 0.67 -0.34 0.34 0 0 Z " fill="#E7F3E8" transform="translate(61,157)"/>
<path d="M0 0 C1.33333333 0 2.66666667 0 4 0 C4 1.65 4 3.3 4 5 C3.01 5.33 2.02 5.66 1 6 C0 3 0 3 0 0 Z " fill="#4A8E51" transform="translate(134,119)"/>
<path d="M0 0 C1.32 0.33 2.64 0.66 4 1 C3.34 2.32 2.68 3.64 2 5 C0.68 5 -0.64 5 -2 5 C-1.34 3.35 -0.68 1.7 0 0 Z " fill="#E2F0E0" transform="translate(123,108)"/>
<path d="M0 0 C-0.66 1.32 -1.32 2.64 -2 4 C-3.32 3.67 -4.64 3.34 -6 3 C-6 2.34 -6 1.68 -6 1 C-4 0 -4 0 0 0 Z " fill="#D9EDD8" transform="translate(139,95)"/>
<path d="M0 0 C0.99 0.66 1.98 1.32 3 2 C3 2.66 3 3.32 3 4 C3.66 4.33 4.32 4.66 5 5 C3.35 5.33 1.7 5.66 0 6 C0 5.34 0 4.68 0 4 C-0.66 3.67 -1.32 3.34 -2 3 C-1.34 2.01 -0.68 1.02 0 0 Z " fill="#689973" transform="translate(139,95)"/>
<path d="M0 0 C0.66 1.32 1.32 2.64 2 4 C1.01 4 0.02 4 -1 4 C-0.67 2.68 -0.34 1.36 0 0 Z M-3 4 C-2.34 4 -1.68 4 -1 4 C-1 5.65 -1 7.3 -1 9 C-1.99 9.495 -1.99 9.495 -3 10 C-3 8.02 -3 6.04 -3 4 Z " fill="#64976D" transform="translate(131,93)"/>
<path d="M0 0 C0.99 0.33 1.98 0.66 3 1 C3.33 3.31 3.66 5.62 4 8 C3.34 8 2.68 8 2 8 C1.34 5.36 0.68 2.72 0 0 Z " fill="#69896D" transform="translate(72,82)"/>
<path d="M0 0 C2.01920337 1.30406884 4.01924973 2.63823419 6 4 C6 4.33 6 4.66 6 5 C4.02 5 2.04 5 0 5 C0 3.35 0 1.7 0 0 Z " fill="#61906A" transform="translate(86,80)"/>
<path d="M0 0 C1.32 0.33 2.64 0.66 4 1 C3.67 2.98 3.34 4.96 3 7 C2.01 6.67 1.02 6.34 0 6 C0 4.02 0 2.04 0 0 Z " fill="#CDE6D4" transform="translate(118,45)"/>
</svg>
